<mxfile host="65bd71144e">
    <diagram id="urp3FpCBfT-ZBYPALRaN" name="ページ1">
        <mxGraphModel dx="1171" dy="782" grid="0" gridSize="10" guides="1" tooltips="1" connect="1" arrows="1" fold="1" page="0" pageScale="1" pageWidth="827" pageHeight="1169" math="0" shadow="0">
            <root>
                <mxCell id="0"/>
                <mxCell id="1" parent="0"/>
                <mxCell id="28" value="" style="rounded=1;arcSize=0;dashed=1;dashPattern=1 1;strokeWidth=2;strokeColor=#5746F0;" vertex="1" parent="1">
                    <mxGeometry x="280" y="335.06" width="220" height="134.94" as="geometry"/>
                </mxCell>
                <mxCell id="20" value="" style="rounded=1;arcSize=0;dashed=1;dashPattern=1 1;strokeWidth=2;strokeColor=#5746F0;" vertex="1" parent="1">
                    <mxGeometry y="335.06" width="200" height="134.94" as="geometry"/>
                </mxCell>
                <mxCell id="18" value="" style="rounded=1;arcSize=0;dashed=1;dashPattern=1 1;strokeWidth=2;strokeColor=#5746F0;" vertex="1" parent="1">
                    <mxGeometry y="50" width="500" height="260" as="geometry"/>
                </mxCell>
                <mxCell id="24" value="" style="edgeStyle=none;html=1;" edge="1" parent="1" source="2" target="23">
                    <mxGeometry relative="1" as="geometry"/>
                </mxCell>
                <mxCell id="3" value="VPC" style="points=[[0,0],[0.25,0],[0.5,0],[0.75,0],[1,0],[1,0.25],[1,0.5],[1,0.75],[1,1],[0.75,1],[0.5,1],[0.25,1],[0,1],[0,0.75],[0,0.5],[0,0.25]];outlineConnect=0;gradientColor=none;html=1;whiteSpace=wrap;fontSize=12;fontStyle=0;container=1;pointerEvents=0;collapsible=0;recursiveResize=0;shape=mxgraph.aws4.group;grIcon=mxgraph.aws4.group_vpc;strokeColor=#248814;fillColor=none;verticalAlign=top;align=left;spacingLeft=30;fontColor=#AAB7B8;dashed=0;" vertex="1" parent="1">
                    <mxGeometry x="90" y="100" width="220" height="195" as="geometry"/>
                </mxCell>
                <mxCell id="4" value="Subnet" style="sketch=0;outlineConnect=0;gradientColor=none;html=1;whiteSpace=wrap;fontSize=12;fontStyle=0;shape=mxgraph.aws4.group;grIcon=mxgraph.aws4.group_subnet;strokeColor=#879196;fillColor=none;verticalAlign=top;align=left;spacingLeft=30;fontColor=#879196;dashed=0;" vertex="1" parent="3">
                    <mxGeometry x="20" y="40" width="180" height="120" as="geometry"/>
                </mxCell>
                <mxCell id="6" value="" style="outlineConnect=0;dashed=0;verticalLabelPosition=bottom;verticalAlign=top;align=center;html=1;shape=mxgraph.aws3.ec2;fillColor=#F58534;gradientColor=none;" vertex="1" parent="3">
                    <mxGeometry x="140" y="60" width="43.25" height="56.5" as="geometry"/>
                </mxCell>
                <mxCell id="15" value="EC2&lt;br&gt;Bastion Server" style="text;html=1;resizable=0;autosize=1;align=center;verticalAlign=middle;points=[];fillColor=none;strokeColor=none;rounded=0;" vertex="1" parent="3">
                    <mxGeometry x="116.63" y="116.5" width="90" height="30" as="geometry"/>
                </mxCell>
                <mxCell id="25" style="edgeStyle=none;html=1;entryX=0;entryY=0.5;entryDx=0;entryDy=0;entryPerimeter=0;" edge="1" parent="3" source="23" target="6">
                    <mxGeometry relative="1" as="geometry">
                        <Array as="points">
                            <mxPoint x="50" y="88"/>
                        </Array>
                    </mxGeometry>
                </mxCell>
                <mxCell id="23" value="" style="outlineConnect=0;dashed=0;verticalLabelPosition=bottom;verticalAlign=top;align=center;html=1;shape=mxgraph.aws3.internet_gateway;fillColor=#F58534;gradientColor=none;strokeColor=#5746F0;" vertex="1" parent="3">
                    <mxGeometry x="30" y="170" width="40" height="45" as="geometry"/>
                </mxCell>
                <mxCell id="26" value="RDP Connect" style="text;html=1;align=center;verticalAlign=middle;resizable=0;points=[];autosize=1;strokeColor=none;fillColor=none;" vertex="1" parent="3">
                    <mxGeometry x="49" y="71" width="83" height="18" as="geometry"/>
                </mxCell>
                <mxCell id="34" value="Internet Gateway" style="text;html=1;align=center;verticalAlign=middle;resizable=0;points=[];autosize=1;strokeColor=none;fillColor=none;" vertex="1" parent="3">
                    <mxGeometry x="70" y="174" width="101" height="18" as="geometry"/>
                </mxCell>
                <mxCell id="36" value="" style="shape=image;verticalLabelPosition=bottom;labelBackgroundColor=#ffffff;verticalAlign=top;aspect=fixed;imageAspect=0;image=https://upload.wikimedia.org/wikipedia/commons/thumb/e/ec/Xrdp_logo.svg/320px-Xrdp_logo.svg.png;" vertex="1" parent="3">
                    <mxGeometry x="138" y="70.25" width="58.77" height="36" as="geometry"/>
                </mxCell>
                <mxCell id="8" value="" style="shape=image;imageAspect=0;aspect=fixed;verticalLabelPosition=bottom;verticalAlign=top;image=https://clipground.com/images/raspberry-pi-png.png;" vertex="1" parent="1">
                    <mxGeometry x="330.36" y="380" width="91.49" height="60" as="geometry"/>
                </mxCell>
                <mxCell id="9" value="" style="shape=image;verticalLabelPosition=bottom;labelBackgroundColor=#ffffff;verticalAlign=top;aspect=fixed;imageAspect=0;image=https://logodownload.org/wp-content/uploads/2018/02/raspberry-pi-logo-768x986.png;" vertex="1" parent="1">
                    <mxGeometry x="364.34" y="387.56" width="23.32" height="29.94" as="geometry"/>
                </mxCell>
                <mxCell id="13" value="" style="aspect=fixed;perimeter=ellipsePerimeter;html=1;align=center;shadow=0;dashed=0;spacingTop=3;image;image=img/lib/active_directory/home.svg;" vertex="1" parent="1">
                    <mxGeometry x="9.07" y="342.53" width="38.63" height="37.47" as="geometry"/>
                </mxCell>
                <mxCell id="30" style="edgeStyle=none;html=1;" edge="1" parent="1" source="14" target="8">
                    <mxGeometry relative="1" as="geometry"/>
                </mxCell>
                <mxCell id="14" value="" style="outlineConnect=0;dashed=0;verticalLabelPosition=bottom;verticalAlign=top;align=center;html=1;shape=mxgraph.aws3.ec2_systems_manager;fillColor=#759C3E;gradientColor=none;" vertex="1" parent="1">
                    <mxGeometry x="351" y="163.25" width="50" height="50" as="geometry"/>
                </mxCell>
                <mxCell id="17" value="" style="outlineConnect=0;dashed=0;verticalLabelPosition=bottom;verticalAlign=top;align=center;html=1;shape=mxgraph.aws3.cloud_2;fillColor=#F58534;gradientColor=none;" vertex="1" parent="1">
                    <mxGeometry y="50" width="42.5" height="40" as="geometry"/>
                </mxCell>
                <mxCell id="19" value="" style="verticalLabelPosition=bottom;sketch=0;aspect=fixed;html=1;verticalAlign=top;strokeColor=none;align=center;outlineConnect=0;shape=mxgraph.citrix.home_office;" vertex="1" parent="1">
                    <mxGeometry x="290" y="335.06" width="50.36" height="34.94" as="geometry"/>
                </mxCell>
                <mxCell id="27" value="" style="edgeStyle=none;html=1;" edge="1" parent="1" source="6" target="14">
                    <mxGeometry relative="1" as="geometry"/>
                </mxCell>
                <mxCell id="29" value="" style="outlineConnect=0;dashed=0;verticalLabelPosition=bottom;verticalAlign=top;align=center;html=1;shape=mxgraph.aws3.ec2_systems_manager;fillColor=#759C3E;gradientColor=none;" vertex="1" parent="1">
                    <mxGeometry x="401" y="362.53" width="40" height="40" as="geometry"/>
                </mxCell>
                <mxCell id="31" value="Raspberry Pi" style="text;html=1;align=center;verticalAlign=middle;resizable=0;points=[];autosize=1;strokeColor=none;fillColor=none;" vertex="1" parent="1">
                    <mxGeometry x="335.36" y="440" width="80" height="20" as="geometry"/>
                </mxCell>
                <mxCell id="32" value="AWS System Manager&lt;br&gt;(SSM)" style="text;html=1;align=center;verticalAlign=middle;resizable=0;points=[];autosize=1;strokeColor=none;fillColor=none;" vertex="1" parent="1">
                    <mxGeometry x="310" y="130" width="140" height="30" as="geometry"/>
                </mxCell>
                <mxCell id="33" value="SSM Agent&lt;br&gt;" style="text;html=1;align=center;verticalAlign=middle;resizable=0;points=[];autosize=1;strokeColor=none;fillColor=none;" vertex="1" parent="1">
                    <mxGeometry x="381" y="342.53" width="80" height="20" as="geometry"/>
                </mxCell>
                <mxCell id="37" value="Remote&lt;br&gt;Desktop" style="text;html=1;align=center;verticalAlign=middle;resizable=0;points=[];autosize=1;strokeColor=none;fillColor=none;" vertex="1" parent="1">
                    <mxGeometry x="144" y="339.99999999999994" width="54" height="32" as="geometry"/>
                </mxCell>
                <mxCell id="42" value="" style="group" vertex="1" connectable="0" parent="1">
                    <mxGeometry x="100" y="369.31" width="79.63999999999999" height="69.69" as="geometry"/>
                </mxCell>
                <mxCell id="2" value="" style="fontColor=#0066CC;verticalAlign=top;verticalLabelPosition=bottom;labelPosition=center;align=center;html=1;outlineConnect=0;fillColor=#CCCCCC;strokeColor=#6881B3;gradientColor=none;gradientDirection=north;strokeWidth=2;shape=mxgraph.networks.pc;" vertex="1" parent="42">
                    <mxGeometry width="79.64" height="69.69" as="geometry"/>
                </mxCell>
                <mxCell id="41" value="" style="shape=image;verticalLabelPosition=bottom;labelBackgroundColor=#ffffff;verticalAlign=top;aspect=fixed;imageAspect=0;image=data:image/png,iVBORw0KGgoAAAANSUhEUgAAAQAAAAEACAYAAABccqhmAAC83UlEQVR42uy93Y8syXUn9jsRmVlV/VHdfe+dufPFmSE5HFISKEoiLXn14oW9D4KBhQGv90kCVhgYMLDwGn7wk+231dMCetBfsIDWWtn7sFgDa68WpFZayfrikoJEavVBcsi5c2fu3I/+7q6PzIyI44eIyIyIjOy+Qw57tLoVQKG7q7KyqqvynDjnd37nd4DN2qzN2qzN2qzN2qzN2qzN2qzN2qzN2qzN2qzN2qzN2qzN2qzN2qzN2qzN2qzN2qzN2qzN2qzN2qzN2qzN2qzN+k9w0V+3N/Qr/+SfiELKF0+Oj89BtPzff+mX9OZr2qzNekYcwK/+03/6Oy++/PIXmqY5NMY8WS0WR0brs8Xl5b9p1uu3T46PH7ExCwBn/9sv/dJq8xVu1mb9DXEAv/LLv3ywO5/fe/Nzn9vVzCBmkBAAgLquodq21UppAGfGmMdt0xw1dX0GouPFxcU/vzg7u395cXEkiC7+13/8j+vN17tZm3X1Kv5aeSOi16uqmhlmgBnMDNY2A5BCAFKWhZQliKZEdJd2dyGlBAA0df2LRuvWGLNk4PH/+6//9dFquTxu2/aSiC6qqlo9efjwN1bL5ckrr79+evu55y7++A/+4OKLP/uzi//ib/9ttbkUNmvjAD7mJYT4ZFGWBGawMV2IwgCMMTDGgP2xRIAx0EqBiCClJFkUlQAqSLkviLC3vw8hJYgI2hjM9/b+EQlhAGittf78l77UKKUef+UrXzlRTXPExvzGwZ079wA8vPf22+/euXv3+L/6O39nvblMNmvjAG4mAnilqirBzN19/jdjDAxzl7MYlx4QkY0UjAGEgAFASkELAWMMhNYAEYgI1WwGAgQBgohKIpoyMCci0M4O1qvVz60WCwAwt+/erRk4/s2vfOXUGHPExjxi5uO9vb3/m4i+Y5gfEtHqP/9bf2sTPWzWxgF8RB7gxaosiY0BiCIHAJ8W2OO8V7C/CwHDDGEM2GEGxAx2zsFHEf4nu/OJ4DWICFVV+fMLQTRj5pfB/HLojBar1f9AQANgycxH/+4rXzll4AM25tQwn9x57rlfY+ZvA2iISBFR+5M/+ZObSsZmbRzAtYv5TllVncF7ozXMMMx46eWXLRbgd31mPPzgA8BFA8wMcpEAmAGtYYSA8A7ERQLegRj0KCgz28ecYzFJBOKPm04mAFARUIFo30UuABEEgPOzs39IRDUBayZaA1j8+9/+7SUzrwEsmHlxcOvW7wN4CODbRPQOgDMAqy984QsbR7FZz64DKMryDVkUYUoAAJhUFb79ne/gX/7L/xMH+7uY7x3g4OA29ub7ePNzP4JCFiiKErIoIJxhe0N+/OQJmKgDFUVQWfBOAcHjUepBZA0/cEbh4xRGKS7imG1tSQK2BNEW/OtYfAPkHNDl5eXf9e+QgIaZl8x8+O9/+7cfMfPxrdu3/x2AtwG8Q0QPACw///nPb6oam/U31wH8yi//cimEuCu90TijtA6gxMnJKf7VvzkBiRZb0wfY262xPWsxnRDu3J7j1q1d7O9tYz6f49atO9jb28fu7hyvvfYpiKKAlAWEkJGRg4HDJ0+6tIB9ihE4kOjP0Cm4xykw8tA5pA4DQaSxs7PT+QUAUyKaArgF4E0iwuXFxX/jHm8BtMx88ru/8zsPmfmEmU+0Ug+ff+GFfwHgPSI6BLD4sR/7Md5czpv1n6wDKIriblVVcyFEb4Q+JGfGYlHj0emXAH4NkC3wSEGQQVGsMSkvUBUXKOQSZfEY21uPMZ0YTCrg1sEEL9zZxv7BFPP5DPOdCluzAtNpgdlsgs+88aOQhY0giqKCkBJCCAiyKcWTx49hvGNwziNMC9gYkCtFsuMuhO+7wzKCFCNKNzKP7ezu+odKACURbQF4OYyMLs7P/0c4LMIY8/D/+93fPTHGHDHzBTMvn7979zcBnBHRCYALdzslouXnPve5DXC5WX/tUoBPVVW17VF9b2xSSijd4snhEuADQLQ2x8cUhiUatYdGvez+FbL7tPDGagAygFF2MyWN7dkltiaXmE3X2JquMd/6OrYmK8ymNZ67vYXbt3awuzvFwf4ubh0c4LM/8uPYns5QTaaQQoKEgBC9wR+5CCJr6Gna8CGcwNhj/u/d+ZwATABMiOggxlIJ5+fn/71zUgaAtlAKr5j58Pd/7/fOjDFP7jz33L91Kca7AL4H4JyI1m+++eYmmtg4gJtdRPRqNZnMkOz+JASapsbh0QLA3SDIdhUAYmtlFITrVABM9icV1mGQBEBYqAKLVgAXriYgapDQkNSglAtMyhNMywtMq0vMt46wt/Nn2Nla4/ZBhdu3tjDfnuDg1i4O9ufY2ZnjzTd/DNV0CikKSCktMSkw1qOjY/fviO5uCkDMEOtIncDYY0/jMObzeZdmEJHPUyYA9v2x52dnP+dSLQOgZuZTZj79/d/7vUNjzKPn7979t0T0PoBvAXgMoP7MZz7TbMxm4wA+8iWlfLWqqoJDANBd2EopPH5yDlD5lORljjN38g6FAKFdNl84B7IFBqBYQmmJlRbA2r3IkQKoQSEbSKoxKc4wq06xVZ1jZ+sx5lv3sLv1VdzeJxzsT7A338b+/g5u39rHfHcbe3u7+OSnPg0ighASJCQEWQchhCUonZ6edc4gwidG8IOrnMBVziT3vPnenn+OADBztxf9sWenp/+dc1a1cxAnf/iHf3hotH5kjDnRSh2/8uqr/weAdwCsALRCiPaTn/zkppqxcQAfer1QVZWkEGgjghQCl5cXOD1r3dsdg9c+7OIQ2nPOADai6PC5CsAECgUUC9SNxHljy5A40QC1EEJBkIKgGqVYoJBLzMoW04nC9uwQu1sfYG9HYW9H4WBe42DXYHsL2JpK7OxM8OM//gVMphNszbYxnW47DMJFEiCcn51ZDCKtUiQGH973NA7iKsfi197+vn/OxEUPcyJ6LTzm9OTkHzLQgLlh5iWAi69+9atrMK8ZuHzxxRf/GLbM+a4Q4h0A94jomIgWL730ktmY4MYBYLlc0j//1V99vXIcAAoqAFJKnJweYbmWAMsf4rswAAvrGIj6NAMEkHb3u+OEdPdbHMKwfW+NEYAWOKsJuCSAjQMCW4AaSLFEIReYygvMqjPsbR3hYPerONipsb+r8cIdwnN3ZpjvznDrYI75fBuvv/4pTKZTTCZbrpQoOucAAGdnZzBBteK6KGLMgYR/f5jUZG9/XxKRjx72fAThb8dHR/+ld7CCiJm5AVAb5od//PWvH2qtjz7x6qu/RUR/5fCIB0R09txzz23Kns9SBFAUxWfKsoQxpiPWMDOEFDg7PcW6BgCJoMr/A+z8DiyE/AHOEaQX/j4igIRzDh6HqACaAhDQIGgAtRY4WxEeNgbVRYutSYP5dovbRyvs3b/E7myJ7ek5dqaXmE2+gWnZYGdWY3eHsD0rMJ9vY2driq2tKV597VPY3p4BDpyUQjhSlH1LDOD8/HyAO4w5i7HU4cOmGH7tHxx0j5FdE3ebE9GbAHD45MnfdccoAMowH37jT//00BhzopQ6/PQbb/wr5xzuE9FDIlrP5/NNmvE3xQH8i1//9R0p5W3PAeiCcPf34dEplqvqB4v82e3g/ucPfRnnDLRNJyhIXYhAApCiRDWpUM72MNkmTPckJttAtQXICaMRCi0UznSLJxcLiIsLwKxAfIlKXKCUDSbFX2JStdieAdtbBfb3ptjZlpiUjKqSmFQSL774EgQJFKUlSxEJSCEgXCRxeXkZ4RCpk/C7+XUpxlXpSOpIwvtv37njX6MAUBDRK+4GAHj08OHfJyHYpRmXzHz8Z9/85rEx5khrfWqMWf/Ij/7obwI4IaIzAOdCiDPYsmddVdUGuPxrnQIsFq/cvnNnl4kgpITWGmCGLArUdYOHj47QqIMMwHfNLs8c5PQ3sLrXC7oOsg7H9idIYVAWhNlE42BX4uXnGHcOCPtzYHeXUBYlGCW0nqFVc7T6RSgNNApoFdBqYKUA1SqY0xbqUMGoBoIvUIoVSrnGrDzHrPw2SrHGtFyiKtbY2ZLY3amwsz3D1myGT7z6GiaTGabTCaQsOtBSOHr1xcXFaLQwFhWEjzNz58xTRxI+NoZF3HnuORARCSF89HDbn8s/94MHD97qKhpEmog0mBvDfPKtv/qrk099+tO/BeB9InqfiN4D8K379++fv/baa+uNA/j4w/9PV5NJCWYURQF2XHxbAWhwdHQObV4OSn1pGM8fITj4NOlDElV8v69v+5hQSMJ0Csx3gdv79nawB1Rl78e0BpQBtOmNXxv7s1EFWl1AG6BpgUbdtse0wHkLnBoFozTEegWJBeTJAhKXqOgYU3mJyR//ObaqNaZlg9mUsL1VYr6zjelsgulkildf+yQm1QSFix6EtEQpEGAM4/Ly8lqcYQybSB+7KuXIncOnjHdfeMFHEQKu21MIMfXA5XvvvfcT/tshIZiZ64uLi3tf/vKX//TWrVv/yxe/+MX7GwfwMS0iem0ymQi4CEAaA9YaQgho3eLwaAFtpv3un+6qP+ywnn04H77+R/eCUlhj354C8x3gYA7c3gMmE/sYs2UlawYMWwegnTPQ2joBpe3j3jko7Z0DoHWB1hSo2wmU3rePK+BSARdGg7UClmuUuIQ8X0BiiQkdo6JLTIozbP3JH6EqakxKYGdrgvnuFqbTErPZBLs7O7j7wksoy9JhNxYD6YFAgfV6fWWZMzR2b9BpJOAf8z0VT4tbeAfz0ksvdecVQpDWevrlL3/5s48ePfpsVVU/8fWvf/3vf/GLX/zGxgF8DBWAX/9n/+wTVVX5Sj1kUcAYAykljo8OcXYxQatnLgIQP9y8vYso6IcYVRgwhGsysq8jCChLYDYBdraBvV1gawp4XhE74w+dAXPvCIyxjysXKRhjfyrdRw/KOQbFvYNQRkIZiaadoNV73TGtApRhXBqNQ9OCVA1qa5iLGvRwCTI1CmqxVdaYld/GpFDYqjS2pwpblUFVEiaVRFlIvPTSKyirClU1QTWZ2MYtF0UIKVHXdZQu5NIKf78xJkobcs7B/34VhtE0DU5OTrBarXD//v03P/vZz/7G1772tf/6S1/60p9sHMANL1kUb5Rl2XXmCavwA0GEo+NDnF9WYP4BQcChIkCyk39EWIHHATrf0dOa+x4BezNsgwvtjBdsK4yFtBHBtAKKIg422AUkxv/uzmNM/Lv/6c/towUfRaggpTAulVDBcY0GtCYYLtCqAq2eQTun4iMQpYAzBZxoDW4UzLqFOF2goAUKrDEV55iJcxR/+Q4mRYPtskZVKJQFYWd7htlsiulkilc+8SomkynKqkJZlq5xS3Q37yBCI74qHcilFSnu0LYt1us1iMg7gRdff/31/wnAWxsHcMNLSPnZoig6gQ4fBZAQOD09x2IlPvzOT2zLcF34/kPCAeCjku8jWgh3cQ1oZrChLi2QhbulDoDj371T8MwFNr2DMWHkwL1DiBwFx85Au2jBH9NFEkGU4aMQe7+EMRKNnqBRO2jd460C1trAGAU2LYpmgaKx0cPs/AwTcQ5h1viTb/0ZtqoalTSQgrGzNcHW9gzTyRSz2Qwvv/wJ5xwqVGVpd3pX9iQCrE7sEFcInYaPGvzvTdN0xyqlcHFxgfPz85/72te+Nv3Sl7603jiAm8QAgJek0+7z17oQAkZrPDk8xrrZdTV1kzE07mPkaDf/CEN3Zvfa8kNGCiFImKoJ2J1Ia4ZWjKZlNI01GqN7WEPApgHp20ESt3SOwDsWdCJK3X0mvC90DO5+HaQYoXMwDoQMHUcYWfi/fYSggxREGwFtKihdoVHbnXNRClgYA2M0YBoUtITUa0hdozy9BJ2sQKa2eMRf/EcUQqMQBrtbEjtbJbZmFbZmU0wmJW7ffg5SCKsH4bUhXF9GCkT61OLy8tJWm9y11rYtHjx4cPf555//AoA/2jiAG1r/16/92nPbOztzWxvvNf4IQKtbPHhwiEa9GF7qcbnt+wIAg3QgdRzsHiP+EM4kKxeSAS3747xh2rKewboWWNeMdc1oWoI2saGHaUAOf2SMOwkTHMDhsc6gB9EEx84jdRid03CpSJh+hI4ixCa8c2DTRxxKCxgjoLiEUts9TuEdClsQ81IraK3ASoPPVqCTS7BaQ5hLzMQ5hHkEiRoFFhC8wLSS+Ht/77+FlLPB7u9xgqOjIzRN04GXbdtCCCGOj4/f2jiAmy0BfHoynUqytZtOaYeIoLXGk8NLaLP9A+bo3lkY2xUYGeRHlPN/6MiDrTEZhtaEtmWsa6Bu7EXvw2x+yqIDJb+EkgQyuJ+Tty6STymNIJBGGJxJQbjHMLqUA73xc5h6mDx4GUYUXboBlxqZwt2ARm2jUXfQaqBugZO1wXqtsKpbNOsFnqdv4sf3H6JwQHK6+/v7fGUirCgopVgIsbPBAG4y/yf6zGQysb0/ARNQCIHVcoHjU43WTL8Po/RXMv2AZKAMqehDlQET5xO8xw6007Z+X7fAugGaxobIxu2YUWHiqbxAPlrInUK45+UiiNGoInlsED2kUYR3CMHfPsJJS5yhc/BpiQlKnr5C4R3AZS2wbCpcrCucXmxjiw7w2qslyrLssIG0oqCUQtM0USXBpwFlWa42DuAGFwOvlGU5rAwIgcePHwUVgFwJcDzE/vBgnr/vByQXcdBMxLjG+TAMk7uYGYulwWJJWKwJddvvhMWYH6On+JeuOJwoET29Js3I+liKU4rB7+69Y8Q5IHUOiB2DQV8tMUH5slXWWV6ugYsVUEkA2mDONXa2Z07RSWX5A03T4OzsLHIADi+gtm0PNw7gZiOANwpf6wq6AAURDo8OcX4hAS4woNU+bVzMOWdB+P5IPd45GGeRhGFmTeMWMwAqXRSgGW0LrGpguWas1jYKaDVQmV79PGvwqXXzh4sQntaBXOUgKHd+DpwDZ942JwAmDx83SVThMQZPflpXtloiyD7WNBrbuoaUE+dQOAr93QAZKKVwdnYWhf9BlPAXz5IDEB/niy+XSxJCvGkppgm7i4DTs3MsV9N+C/lQyzyFRVxnCR/mHEnCHIKWVzzf5sqMVtkqwLoG1g2jaV0aoIPd0STgXOrf+Onf4vedDWUcQ3ej4CYCiQU3jcU/JoXlO0jhbtLyHQoZ36oCmBT2ZyXt79MKmFT2p79NJpY3URUK21PCfL4Po1W2eclWXvRo3wGsGvMmArgpCFAI8QkrwhlvL1orLC7XWLdzdOW0dDeP8mvhtbo//PaWjQquqBxkt+IrgEDPSUjSCi8iqg1Baca6YRsBrKwjaFWfBkjxEcAZFBtx9qP6iCqolLwGJ7tNF9EkUUzu35MIeA6Bkrvh3jkUEpjIFlulVV1WjjGY0zdommZAFHKPMYDvbhzADa3vvv12IaS8RUL0wzzcdaG0wslpjVbtZIzrQ9biI4Pma/LzEPTzUYAYVg6yLML0uZxJPziJ1w0MS7QtY7VmLFeMyxVjuSbUDaCmPVJOGUCOKA6QPrSD4D7iGpwjBRDHPnoKnvdhIZjkdWksVZExyZLZRRLCOhYCIElZvoBrKPO7vUik25fLZVQhSMLGRxsHcEPrG3/yJ6/MZjOZS2+NanF2YWDM9CkTlWSHfip+wJgxP6UV+eeFtN9sZOAcCct4h+1gAVsKbFwpcLVmWw1waYDWgJHAYAQBxcj8wJCvMdjOiSCGMHgEY/AfaRQsJb8Txw6Dk+CDrog2oo/xGjAzBwcXUCjIwMBGVmO04StSgOO33nrrmRIa+VgxgLZt3yyrSnDiiUkIaKNwfgHAVPn8ms3QiK+Ne9MC94cwdgSwNfiKBDl5P8zXOiBm7hDuunEOoGbUCTNwUJrjBG4I/6UMVsAhlmACTCE9Bpkbxx9f7ngkpT9j3J5qenpy7vWi9ozgXOA8/BAdg54KLbHC3nwbhSy6piEA0e/MHP2drMd4xtbHjQG8XlWVHCjWuivo8FgCXPVh+PcDBF5L/MnTdPu6PV+DFYxEDml1gUKou/9/2B1nDKNpDJa1wGIFLBwO0LQ9KYgoj8UNNszrKgLJv+uN6WmZ1NfUO7L4QmfsLhjqJNL9+Z4CugkdRsg29B2MZFbY3ZlBCAljYhEgb/RFUXTNRaFIic9KnzUH8LFFAMvlkkgI6wCCWX2dHKcxOD0zABWQkiAlgUQCtg12ZL5ix2X0dX5kYmfOpwadweJqZD86Nj2X6R9Lt3G3DXeVgNpgtQaWK/uzduXAkH9v0mpAhrufu/HYLfhIBlECx5+c7xOIqMEBxXdA/oEVRUt7E3L04rAcaJIowQTvxSQNTZ5CzLoZKBKlXYDMjPV6HQmpBuuvNhHATS7ml4qioHQAJxFwfnGJdU1AQSgKgpQCygio1nT89afL0VNg7pp8/sqtExioEV11Xg4blUYig+6stjGoUUDdcFAOJGhlGXHEsbRh7q2leX+3geZye4rfVrgTE67/KK6CY0P/SnQ16DiIwcwVCVboQIImJG2AShhMqhJKqSvbhsPHkwhg4wBucJGU8keKohhcSIIEHj0+xGLJKEqJ2ZQwmRZoFbBaGdQNu7mdSVMPwrCdRq5AZARCr4Ov+SnBxat4u0E6MohtbRuwUnBAIGO5RhcBNA4IlG7OlxBx/purDoQGziOWGjIdkE+Exg0/YPhd6zdHCEuD903x15Wr/aStzD1FmDEtDPb29jqQb5iWWEJQXdc5APCZKwF+7A6gLIo3Zap4QQQhBR49PMTlAihLgZ3tAvv7EygNHJ+0MBct6hqZ8h5dg/Qjsz1yZje/AuiLyocccw/SxqDu2IwQSWA5zAYMsj30LWNZO1rwirCsYaMADWjhnEAijcjIJ+WUgGVXMQm7ciI/HWFw1LciqSwklQBKcvpBtJHzsdQ3GzHHGgaeGqyNgZQtqqrqOAAp0u+7/k5PT6P8Pzjm3sYB3ND6ra98ZV5U1S6SabrWS2scHh1DmRIzSZhMCsznEwCEtgXWa42m0VY8IwXr0qab7OX5NL39flAIAqdAGTxBPgUnwJP5kQEYKa4EKEsL9q3BdWP/Z6Vt3ZsoLgemoXrqjz5cShYgHjTuCCjZyfk6chGCSCQTKeQ4COHHBROgMNxjHt3ubwCjDYTUHcofgcpBM5AxBpeXl1ndQQD3Nw7ghtZsa+unSQgKrxiGLQEqpXB8fA7QLUhJqCobBchCYrXWuLhosVhpaPO0zJPc1uLzc2+MuUEhI33+V0YePP48PyuAM1VxZjAbaC1sqlOjKwU2reMCFDFQRi4kTsPqpwH/0zuYhyH6aESfMhJTfZYQ2Q/xBu4NmZ4230Dcfhy2GBvXLai1VQXau2NHq5m2jYw/ZAJqrfvhM/E6f+utt565+QEfSxVguVyS1upnptNJFqxRWuHd+0cgmqEsgenEqsDcPpjizu0p5nsVylJktj9zdSWAc1UA4Olq+5zJ94H8pKKneMwMO2SMYSjNqGuD1doyAhcrSwrqaMG67w/QGWmvqyoAT1UZMBmaBA/bG0IUP60M6OS9RSpDZhz9TysL3f+F4f/Z7f7KYiSsa+ztTqySlOEBB8CX/bwSUMYBvIdncH1sEUBTNz+yO59nJ8WsV0s8PqxBVKEobARQTSS2twvsNRX2discTtaoawf2ZCHrZLceJMSc5PyUD+UHCkEuNSDkn5cCiyGl2D+PgnqWkF0VwF7YBm0rbF/AirFaGdsX0ApUpcUB/FT0HLiWA/wo7Mqjq1F8z9k3PKwujJ3jupQiJXBzEu6nEUFWhyDoCEwlyKx2QgspAK37Lsu0E5CIcHZ25vv+03f7vY0DuMFljP6UEE6zLTAgIsLpyREWyxJA6fjeAkUhMCltJDCfl5hUBYTU0Mrn1IQhA4aCXVf0iBRdMeAjS+5Jz5M+dtXzONMbEKYbwTnZwBhhlW8aWwHwlOBWxWlALrjIUX85iwpmSok07IG8Mhu65hCiINxPsNLRLGkEqAxJlWGE0QmEGECgQSV5wPrz11QIAmYqBAzgOxsHcINLa/OCLGSweVsjEULgydERLhZ2TLaPAAopUBSErVmBvXmF3Z0S55ct1tqABwCbGLlgEwMcjPLKHT9ytXbPvYoVmIssQhXhBBx0O5fSBnVDWK0JqzVjVTNqxZhpQmkAE0YB4VsSQ2MiGqk8jgF1V+T9wy08/lQo4BLkGoM4KfERJxHK2LmT3Z8DYpSvBJSkMJ2WgxJgauxt22Z1AAC8s3EAN4g9aK1vkfv2w8awQgq8//4jnJ5XEBWhKIQjAtnfJ0TY26twsF/h+LRG2zKUSgPNqxqDwn2OhqW/sTQgHQE2et/TPOZUhjvjt8fYYMhAa6BuBBYrg8slYbn2isGMUpHtgMuE4t3ktMDXMOV3WsrQFDqNk+uERijvMMLQ3tAwxKcgtQh7qK5zRmEE4BmHRvezCZQCtsQakgjaxANOvRgoYAlAvgKQWd/dOIAbfF1m3jLMKHyJxodoSuHw8BTK7GAqGFLC0YDtFSQFMJtI7O6UmE0LLFcaSvMISp+E7yTGe/3DLSm3Y6ftwWG0gSueF21/qabAcGiIMdzN/2saywasa6BpGEpZPoBxvisdd8C5WHxkS8/t0FmGIWfGKvBI5SDBG8bqI2H+LyjTizCCARj04KKOhEUZkhpoLcEmHwH4CkAoBZaUAt/dOIAbWl/9wz/8dDWZCCGGRQilWjx6fAaD5yEE2dBfCkhnZ4LIkoN2SuzuFrhYtGgaDZOr0yfhdX9VJIY76NHFNfQ2jpPmXJoQOaEEO/DOhhBxAphtVdQYA6UMmpYihSA/kadj4Zn+JQ0yrbYpLkBPGe8nOz+b/O7/NDJkUUqQeYrJgIU5B9BVHDBsBDLGoCxbVNUExgyrStQ5V9OlAJkoYJMC3NRaLhY/XVUV2BjAhWgEP6Wlxrv3z8H8mpWKKgllQRCCugu6LAXm8woHexOcX7RYrw2ahpO4OE0DvNFlQvQoFL9K8Sfc3ekKXGEE7QqVNCNgMiYvsWsMWteM1cpWA9a1SwMmQKUpb9y5qgDyQBs9rZ4gJbVijg07J36UO69PASJWIMVdjqGAKGXmGvjQXyXDT41pMZUrVNVtO3sgM4iUiFDXdTcMJFmrt95662zjAG5oKWN+ans6zRXtcHp2gqNjAzYlpGAUkiAkRVU8EsBsKiwYuF3i/FyhaXS8w4KvAAFD48+1DI8NDMn0zBpj41jPLBwAkmFCLgLFYDfpyMfMriTodzqlDOqWsK4tGLiuDepW2pxXx/p70b+dMeDBZpeoCD2NnmkuOsimESMEH6KYDUiBP04b83IFnXC0WcgBaDUA00Dw2n3teQCQiHBxcQGlFKQcMEUP8YyuGycCLZdLAvNnfRNQ+s2fnBxjsZJgSCscKQl9tzDDuGihKgV2tkvs7BSYTESyg5veAHPJZPr7INYdU/bJ/Z4gaVc+N/e64Wv279c4gKtpLQZQtxYEVIphNGcJNoYzoqGZFt2o1TfTFjwAB0fIQtnzj5B7TDAMNSL5mLz4SPgaJkMq0sEMQzItJoV2ZCqTfOU2GpBSYrFYjEUAj55VB/BxRABktH5VhmPA3LYhhMDjR0e4uChd7d+2AhdCONZubziyENjaKrA3n2Bnq8HZubJg4KAfdgRdilp0Q0xgrKcgHBuWbJvd7ECRiR6C9GAs3aBALsxhAdoYtEqgbhir2ncGMhplx4ZJk99xc0g++4xFxP6me24IXeiMuEh6rO8Z4KEkOI8k8hFHIL2Ph0Bi2js1iACCRiCja9y5vYuiLNGqepACeCKQUmqsAvDuxgHcYNRhjHkulQHzbv/9B4+xWG1DSgMJoJDkUGi7+/srhWDTgP25JQYdHtfQKxMg4alRh9UA2W+FJBJgL2jUGeTzKYEnPI4xLC0i6TUQMTw+SBHI+QDbGdi0BusGWK4N1mtgvRZoXNnTgqLusxnj4ifhOuVC+xHm4MBy09zeJOkFJxlCpvyYhRgIEfuIEpAxlBoL6/5+OlDbAoVZYHtWgUiMkoCMMVgsFmMO4J2NA7i5JQHMKaLO2iupVS2ePDmDNlsoJEMSQwqGEAYM00cA7rmyIEynBXa2C1SVwLo20CaV8srtyGHLWQjepSj/GCcg1/mXWIoDOLPHRS177v1SiEc4RqD2U4NtU1Dd2m5BpQmFi4+FybTt0cjQIJOpAlBCxAkNOCmSUM4p5Ag/I5D+dYEYkGgMcHy+UHnIBJOIZ1hCIN8CDPQjwM/PzyOF4GdZCuzjdAAFM5ckRBACWqPSRuGDh+cAXra5v7TaAMKXulj7lkEANi2YTgR2d0pszSSWKw3TcBIFyKuvuDTEp6S+losCojg7HQOWKwmGTmmMHSij12OPeLfsIgGBtnWdgYZhDNmJOBihNdBINoQhqy9NBbJZU1pVTTIspixOmHU4I59+PoIJMBGNIA3wk4gNY1a22N3d6vL/XDswM6NpmogWHKxvbxzADa0/+P3f/5lqMhlAywSgrtd4/8EawAxCWPafJHYXssvrmHoyPANlSdjdEdifCyyWDKWUbQih4grVn6AVGAL20goMlINum4gTMCYcQknK4c4bRQFh+sDBliz63/17YuEYgdLOwKsNlmvGsjaoa4GmBaqSQGAIAVC4PVO8Yw9SAQzHjA1SgTFhkGB3ZhNHG5Tr8ef8c7OVCgzLfpQAmeHkYJ8GKKUx3daY783Rtnpg+N7Y27YdmwUAAN/aVAFuqAKg2vanJ1UV1Zd8vrZeL3G5nIC5gBCAlAJCEAjkxBwsDmAMQ7vWX0HAdFJgd6fA1oxQFAbgBjBrwNSAaQB22to5ClsorzOQDM+1DqctxyYO+8cqBF0HDw9j2+j12A61ML492GsEGqzX7KoBNhXwrEDN/e8huq4zyH3Yvuvbik1aTTCJCGlyTDjZN9XlCxt10vdjTHK/GVYxTCIrbsxwOrA3/kYBRiuUtIYgMdoHIITAcrkcawPWeEZbgT+WCEAp9fnpZDLw0tYBNFjXFQAb3ko/MowScgc7oMxtdWVJ2N4qsTUrcH7ZovFtwjAAt/bqIbJIO0m7EwvZg4FRHi9wPTOQr0iG+Qr8IQQSQ15A2ipsHZ42ViDEO4GmZbQtQ7tKgGB2gYN9XbaxwNOlAhSwCdMc/SkkEjkhUkaTg0Y6o68qzJhrqMBRJUD3kmDgFtMy5v+nTiDkABTF4JK/fNaGgXycDoC0Um/QdBrNAmQAQhCWK4XF0k4CIiE6HKDv73Y7rhGOiWYfk9JSg+e7Fc4vGqxWBrrFUHWSTL8T69aBb4XdCsnXyHyOLx3Bh4MwPTTwkZJeVxKUIwAkEPcTZPoHyHY4MhO0Nmha2UcBDaFpCUqT9WEEiEQPjDAs2Q3mAo6M5gKS9gaDLOMPOq8HmBr82JQhyrwvzvCsOllwjvsAvDiKMEvcvT1DUZRgrrMpAICxNmAAeIJneN24AzDGvCQCANB/JUIQzs9tCiAEuRSAIAU5OWwXGvt82xW2/UUzmxXY35vg7LzB+WULrcJtKczJ09q+CgxcBDC0sH23cE6CCkAUGcQeCYPQ/53hBaR8gUh3MG1IMo4MRGhbxnptJwat1gZNK6AUWwdJDE6thvIju3M7LIkYB6AUGAzy8adB9buqgonT/5RHYJDXL6BM6ZATBqAOqMDES8y3SwA0KgXutQBHSoD3Nw7gBkuAzHwrpGL6PgApBS4XLdpGoqisLgAJCrg63IlVWpuKt5GyEJhNJXa2ClSVRF23VjQ02/Bj4lA/O1XYG3RrnQQJZ6zCOYPS/R6kEx5WSXf9gWJQmAqkgGDPTWDDDgdwpKCWXFOQlQ4rFaCJIES423HHJ8iF5BH6wy4DRsxQRjp4NMA8KdNlnYs4cgo/16YnFJCLKK4AdLJmOnYEEmsQmY7hlwv/fRPQyPruxgHc3CoZmAoRGwkzoyhLXFy2QEsQUz873rUBw0cAFO2Q9gqy5xKCMJ0U2NouMa0kFkJBm0xcepWCb65cSBniPAc9uSCn0CHd9ueiBFHYj9dHDwYupSAMBUgpSCfcexQGDAHWBlpZodCmRecAtGKogiA8vOG2cEr0BTpDTndYjesVfgIpMOY8TjCmDTrGHkyHNEfdhWmjEXoqsDf+VBJsu2gx35lB6XwFwGMDYQkwWf9x4wBuqALwve9+93kppfAiIDby7b+sx4/PAZaWF+TKgD2TCyBh3IUYXnlOEYiBqhKY75TY2bbOZK01mEUCzoXTekWs44+RXJ3SBiMO+AiBUyDpIgYNmNaVAH3UQHbEr48USDgH4d6fxyPIph1sCpB0UuGtsc1AtcC6hu0NUECh2DICI8P3fwcYReJbcqW90TJdcj+nRpsWOkZKh4MQPyRmUuZ4HkYA3RxAJwKiW8ZO1WB//y6UqwCEaYC/dsqyzLYHu/v+fOMAbmg9fvToZydVBcNsQUC2+asggjEtHnxwCojKAlvU7/6GGYI5yis5uOoYBIZtGZ7OCmxvFZhUAnWjwRpBWG2GbJaAfRdZShSu52i9MqESh6kFxcAj4PgLAEgHW3KLaNi18F+HdJiFgBESui3R1hXqVYn1qkRdl1CNhCokCmkdFCUtdJTOA6MRDCAxviicvyKkH9X/H9EcSGcVDFjgyOMM3gHkMACjDabTFYQgqHo8BfAg4CYF+JgdQN00XyyKAkZrCK/K6mYCMjMePjwB5CsdCUiQBQO9Z2ePHBEHJfS+SkBEKAuJrVmB6VRiWWs0JgDawitKhBhAQOJh5MnwISslLQn650T5vRiqDhP3xt5ZWLAlRkxE+z4ZDK0MVKPRNi3apkTTVGjbElpJ6IIgIMDkowD7O9zn0bN+KIgUguiF8pOFKQx8EuMmiqW9cmnDAPkXmbJfYvCjSgxhCuAdgeMAVIWnAF89DKSua4srxbs/8AxOA/rYHIBR6rNyNoPW2tZj3QVKRFgsl3hyuAKoAJEdBioFBTbrwn8SwQab1LLYOo7t7RLbswKLpYJq2XGArhvtHV6CnNnFRTBIRARGnk75CVuSRaI4jGRKUCob5l/HHm/r+rb1t1W2F8AOCrF8gFYxSk0QYJDwLAA9LMGRCGODvlLgLLCjE0fRjOgNPNIeTDxGOJ4hESnMOpbQuOnKaWU9BuBJSRrQNaBXgFoC+mKN26+XKIoSxtSj8wC9HFgGA7h8FoeBfFwOQIDodSKCUSoqjZVFgXv338HFpQX17PirXgXIN4DYi0b3KPlA89q4LkGJ+bzC5aJF3Wg0mqNj+vA93H0dHTiiD4+lAslOH3X4IZYCC8k+Icqflii799FzAWyZ00AbWwqsa4NVbezEoNZgqghKWdJU2O1Hubob9YQh76PIPdHjKtS15HnnFCgPRRJoQbxOGfNP7xvrE7imROk/6i7/V5a+oVrbBahVi/lOCT9ePkcGklIOxoUF6yGe8XWTDqBgY54zxjivbiCdHFhVlTg6PMNiIQDhRUAcBuA5AAPhON804w2oBwhlITCbFtiaFbhYKDRQ6Nh36Y476Kc1GGdIjykCp/eHZUZcM4AkE3m4qIK7xiCG1gZKCbSNsbt/y1DKQGuC7ijTbsS6K5FSUNvz/iasEsDpJ1AXceSxO+aMDDAHWEMn7MqJVAJFgp9XDRUdG+LcgYBuIpIOyoDMNQppoHU+/PdrvV6PCYG8t3EAN7cqAHPvmbUxXSGsLEs8OTzGYlU4dpslAHm2oOG42YShuySVOxyB3Y5pCTLTSYHZtEBVCqyEExMZC71zXX2jWIBvSApxg7EIIThnrgY2YBciwQPsezXGMgJVa8N/rwmglJ2E40elU6CwHINvPGIc1MH6JIZxOGU6gmh0cgf5Z/QRB/dpxyDf56FuwNhEt7Afwef/SgMFFCaVnSU5Bv5JKXFycjJGA/7exgHc0GqapjTMlZf00lpDG4OyKKCNxr13j2D0HEVp6/+eA+ABwnD3YHeBeVERqxVgw2l/sVUTSw/eOrdYQMtOdQdjI76QBwWzWAACjUD/ppJoIj1Ht+vrGDtIo4OIgyucfdmegEYpNLVA7SYHWxwAKAqODIoSsT7KMnUS2zYIpjOlU3449mGZeJ0yaqCUFPeJKHo/5qrwP/jYw0Yg/7NpgdmU8cLd21BqWAHwf5dlibquB2VAtnf8+cYB3ND6q7/8yx+TQhAbA+GYgEZrUFmCYfDe+6cAP2+LYoIgCtHZhdEcbKbsNmFn7AQwMdgI5xgIbKyc+HRqS4InZwSlrSFFwpzguCIw2LnHsADkHUVXSuTAyAO0LEL5ZQIUcgC+cYwHoG8MapS2uEYj0SiC0rZKwAV1rQuEvp2Z3fMpN66HGJREQERD4n/MMcg5lT4ti1IMCu5HTw/2CtBJtjBaAfAOwAQU4LYFticGs+kE67qXAQv7/73R13UdRT7ckUmezXFgGC/O/HDWcrmkxWLxM7IoostIezxAt3jwwRKgCkRso/uuXONZgP4Ldi077m9tjBOW5O44b7hVKTGd2DSAwlla6fjb8G9OW3Y5j1NTEJ8OOgBTg/GAYNJGHAmEEmJhUOM/JPu/GwOtrSio3fktFqC0a5IxTiiE7U/tJ/H61mL2QqIcfKYZAU/j267jsLtv12UYNrYF2Ym0+nPH4qTuPJq78p0v+PuWbmP89zrefhwKiOoECyDWMKwHbcBxxXcoBRYc+/YmAriZRUapz0shrNF7L20MhBA4Pj7G8QkBKG0TkOhLgIYDsXjuoSoOqajktACN3e3Y7WJSEmYzidmkwLrWaNpULz4l+IToE2Um+SRRgK/9D5p8ghw+VQNK8/5BVSBuLWZYoJNZQGkNpQSa1s5BaBuGag10JS0VioIKgIs2un2Wg2pA6MACLgUlVYOQNzDAFTzaHuGDlPhHHpYQw7TJRwI8rkveGX8Q/isFaMXY3WLbDDWQXrDXlx8LdnFx0XEAEkfx7sYB3JADUFq/UUgZ5ZBsDIqiwIMPHuPs3NJghUO0haDOBIyJPTcH6BD7XnhfEWCK8tKJGyu+XLUWNadAVSgi7aSsPs4MGk0dRiokaoJjAw6Apwn70L9LOxJGYbY0aF9Ga4v4N61BXRvUjUHTGrSNgJrY1xHkKMAZSg1FVu8649JhHYQhFuGk17LlvQQcpYjcHwJ/sUgKufIhD4DGQKsRIQZAFvhzt1YBrdLY21YgTHI7eycFfkUn4DM7DOTjcAAFmF/qvogA1CtLiSdPjnG5KB3Xxhl/QPYJS4Cc7EYdGYh6RqA9zqPAAtOpRFVJrGsNbTICnlEbb74kNzSqsE8gVxVIKw19uTKWC8tFDiFO4EJ240p+bmxY627KMLS2zVAQHNjosOGfchjAgPtPPaAXzB/rUyjKgIgcaBFwHEVl8QIGucf77kNK3nssBRYqCilFMFpBihpKT0Z7AK4pAT7BZt2YAygBHGRGYwIMPHx0jLaeAZWV+AodgMnN9uhKfz4kl2DXVWIvhh5gEgKYVAWmkwLLZYtGcazDn+0UDHvzw0k+I6W+QVUgeDz6p8eGmHpwcmwQqaNLO8BPaYO2NWiVxQK0FpYy7ZSUYpAv3k0p+Z84o5dIISIXNEGNaQL0h4YdiUHJNAUSu2oAB3yj2GFwMHvASsC5SMBhHEZrlAkHII0EpJQ4OzsbKwG+tzH/G3AAy+WSAJTGmG0RzrJyX5JhhXfeOQFoG1LA8f8JJIWbJMNxDupbXyMJPxOUBGE7AFlbBJyBSSWwvS2xWErUjYb2cuCc7NCMvswXovyDkh2SUl9a+jNx9MCchML+cYlhh2E639Aea9jyAezQUIO6tWmAJwTZfNd1JhON5uEx2m+GO3qo+R9aeTAFhFJPkEQDYcZECQuIcrW+zlHFWIAvARu363sQVCkB8AJ7c4aQEsztYBiITwGapsnqBAL4i43531AE8PjRowNYOfAsSvve+5cA9mzG6QhAhH4UWMilsQ4hVH/pPYPpuGiuRRjWCYiCMJnYisBi2Tq5sJSqm04EGtuNc2xCihvnKaUei0AUlIagoAMyeyyCovfl1ZANGxhNaBuN1mEAjdJolYCQBhIEYvvZkaBeQg3hKGzOpAXITubxptxFFdynb0RBpMBDzgEH/xuNNvykkUcQOaB39MrJf+uuFZgh+BLTsun0E1MA0EcAI+E/8Ix3Ad6oA3j48OHPCCEC4Kf/6ut6iceHjcsSvC0NU4BIEBRDzrfpmGjOCbBwaah9pJACVSUgpbAoUkfoQYaqmxkfHjXypHhAUhVAGtqP4AdjTiZkI6JnL7KxVRSlgbY1VhlYubKf9jLhjhCc5MLMQRiPuCuR0jSAYoUhjTC/pyDFz+zc2bZjzisEJa/LnOiRB+VAXwXwXACBFQStuyght5gZq9WqGwayqQB8PA6AVqvVT5FXAQoSUlEUODw8xsVFAUB2JaxYCtwkKtp9BMBBBMBOW4CcNgCz7oyLQSgKgemkwKSSqGttIwtC0vMa6v6nhB+ZHzSC64DDTDUhlAAbA/+iqoT7LKBhTOFAQLZ9AcqCgoWEHY3VwZ/oFI0o5Cx06HxcMYmioMjY+6nInkxEySihATZAw9a/mIzYvw/KMTHDBMhQD/5pK4WmWmBWatw+2LUzIJBvBDLGRNOAkjLgJgK4KQfQNM2bHFQAPFhXFBLvv/8Yx2dlt3NEFQDjs/skGnD5ehz6eYqwcKG/NUQGueueMZkKTCcSiyWBlT9zOhpMB6U6mdmtg67BiMTuSn0dn8f3K+RKfSEo6PEAERiPHj7H4SFGayglHRdAo20E2laikBbclBBxPb8D9WKtbqLhbK9BBSGMBDhmRqYahF06QSk2MGwFpBxWMDI2zIf+/mYnJLfYnS/x/HOWBpyrAPi6f13XOeMHnuF5gDftAAo25rXBN0yEqixxeHSO1aKw6lhOAKQL/5lBJhZwiHP/8NrkzjmEKrnG9GIYQtiyY1HYuXts2Or05QDBVNBjUBXIbX2hbgDyg0EHJKFgclDkBFJ+gosCHAquWoNWsx0VpmxaIISwLb0dASichJTKHwS0X+KEOJT0DAzid07AQIf+I6iG5MqFAV4w0AzpDu9LxOzEX7Xp2Y32ZlDIFYpCol03g7Dfk4DSaUCBAzB4hkeC37gDAPNdq+Uhop1IlgUuLhVgpoP831NJifIGnzqDyEE4Bpg3RK/fKYQdIlKWEq0yMGZsaCcnqP5VVQFgnCWI60t9OaZgd8r+WGbqlG+0tqVAOx3IOoJSG2jR78SUNjMh1QnwTiBULO5BuM5MmZPoIDbd/pz9exehGVPgHAblviEwkCqFa8dzMEEUoLXC9lRBiJ4SngLL4TQgr0IdHPdMDwO5MQfgSoATZp7nHp9MChyfMGAq+IaVHq0ODZsGO79HmTlAi3sikG2C8RehYQGYXjh0WkmoVsNo5wREOiU4nSWQUwDyoTvyk4c7JxCr/MSRRJheJCBg5ASok0K3whieC6DRtNLhAALCORdyz6NBl2EA0qV6fU8hztGJjQ6i+jj0NxEEQAOAMdztr3phDgBASwG23Y+6XeG1V7ZRVSWY1zmAD0IILBYLqzshZRJ80snG9G8uAigBTEPr9VN9ZCFwdAKAq8yOgmiHjlMA6pp/ujSU48iAyQqEcDd6y5bFpASqCaGoBaihQJEyVbsIdlDvJFJF4TRcD0PglCoMMVLqS9OJnBPo6cvMBGMklGsIapSGUgWUtqPUiYz7DMWoMVumcjAFhDmT05OLJHLlusys8IB0xJ0z7//y4K2gJJWKxoFzAHr2DkCFAKAigBfYn8suKsqVAP1A0BEp8A0L8KYcwNtvv/2GN5/QtZNTAz49bV0FgOJBIK5rrK/UcWRgscEHXYPdNRxq4xtHDrJnLyShKGy1QVNwIgqn/fDQsAez8/j6Ul/3D6RagsgwBcOIQEYSugwDchEJGwPTkWK46xPQ0mImtrvZdDMNsk5AI+kF5YCXL0LoIGleChwDxRxAEUX0mSlFYEvCCk9JAXswcCreL+cUgQWvUck2AgCjcmdQAhzpAry3Mf0bcgDHR0dfEkKAA06vYUYprfT1yWkDiFl3AVggKyjtcRDuhwYP9JLgzgOE6QC7XZ0dAm476ghsrORYVQkUhUDbBhOAQ3ZcpB6UE+5IevkHDUOpmCiGlYUry4MhgahPBwyLGANwdGClrFMj7cVBgh2Wks5A9IocKavPfg8BQzBSEg7neg1ZfcZjB5TBCbrD3H3syoo8LP95PkXPAbA8B61tClBVGndub6NVatD775dSKioBJo9vWIA35ACkVuoLA9ErNwnIMOH4pAXEdpe3CdFH3aR5MLXbhCGf6c/aMQY5rAsDELInB7lIQAhGWQpUJWFdB3PsIm5AmN9rRPMDuxRAx/yApwIFw0hgpDzozxu+bvcWLW7RthptK9A00vUFCBRKg4hhWLj24KS2n8wO6ME5jmpxFAmjcgcSEPEACKSBsjINm46QSJFReH8mQXFgpNcC0IptytPaFuj97RXuPv882lYNdvdQ9jucBZCkAv9hY/o34wAKAG90l1tgvJPpBOfnl1gsTYIBBUrACHd69PTU8G8O04G4iwwAWBtfDXdqQXYHEwQUhZUeUyYR//Cdb2mNytN5I4R9hCLce6lAg5+Sc4xEArnz+uFDBWBYwxgBk1QDlJIQgiFEDrl39wmP8IvQZBNwj+IJviGfIDXWiCuA6HWubkkODDadKRYkEZrJlQAZ2tjvr5JLCGFl5a4Y+hnhAZsI4GNyAMaYl7oQvQvtGNPpBPff+wCrFXdRsqB+9/E173A3p3BnRzAwJGHshvcZLxaKfpYfu0KVlFY0RGuOugxjRh4PUwGkeEAw4JNFZuLFUziBAUcgkw64U1l8RENp6TgAViTUlF47wQSIPUWiH71kWOiw2FUPYnofpQSdkEmY+gEk/7NJiEHuM4qjAxvq0WDCaNgKbI3fqwtp02J3uwWhL+OGkt+d6KzrAQidg3MEhoje2Zj+zTmAW6Yn9NtRYEJgZ3cX9+9/HcuF3Y4p1r+wHIAw92drzByV+wJh7pQTEOEEBuyGiHIgJV4IQllQBy7FTiAw6AE+kDTQRDv4CEnoOicQDQdNMYHwte3OrzU5hSCXArQaquzTKOrANf+z59t7w6Qo1w8IM+muHU0X5aH4KAdCH4NdP83vw5QgpB73pUFGPw+g1wCw8mdNU+O1V/ZQVSXMxXq0AtA0zWAWgCsxf/sXf/EX243p35QD0HqbjQF5cg4zSEqUZYEHHxzD1AKYoqsKUEfe4Y6gZr9cDJH/1CFEDiBOB6yUOMF0JSZ7IRcFQbTkdoywlOenbfh8P9X6p4wqkBhXEUIQRYAzTiAsIYrxIUVkbPivemEQpTSUGxIiBTlWJTLhdwi4sRuowQFDjwKREJF5bpq7xyPaIwLRVUIk6X1jQ0E69N/SgdsWMHqF/b0CXgI+rQDYqVLDYSCeHQjg/9mY/Q04gOVySSfHxzteClwEs9qLsoQxGg8fXQBU9YBUKgSaTIjtjD2TCoBTRiACcRCHE3QTxGxrLRO5MeSASifnhrs8paW+tGswzeXHpMQQNwE9LSbQiXKIDghkFjYk1q4M6FSDtTGAFm636x0ZG4YIpxm7DzUt5/WofzD+3O/YIk0HeDAqLNdjkHciIajIg6mi/vvtHIBhaCMgsMK0XHcAYFoBCDGBVB3I/f7tjdnfTARADx48+JLP5zkwqrIsYbTC/fsXAB1khvJaDn8kC+Z3/AT8CxmAIRjY/236c8J2zBkvXOV2OyntLAK7Y4jYCfgLOgrtA8BhAAqmEcEV5cEuNU9aiMeAQe6jEWM0jCaLAbSOJKMNCkVBP0BsnIb0QPabBht2LyHeB+bu/9MYdPpRJC3egwdx8EMZxD/XhNR/7uzSFe2cnNJ2FuK0Urj73CxC+NMKgCcBpSxAsh5nk//flANYLpc/NWziYUynUyxXS7z9ziVAdyGcIfqqkzE+9I5DfoAzyP8wYggHiZjB6xsYpl4Dt5tDyF0PQmw1XvAjLfWFjL0UFLwK3UfcPdhhAr64LhAPD/Gdgp7YZFx+LKCNhtIardJQjUBbWi4A6yCdCq2b8sKfFHYKBVwHiijL6a4dVAuI4kjFnVcMZhTSFSPK4/N6KfMu/28ZbWswnxi88PwBWtWO6gBUVYXT09PIATjnUGMzC+DGHIBUbfu5blhDQNSpphMcHh5jsZAJBbdvAkqlwzhRBgqFQtJmoA4UpDgtgAMXuasGWMip1yE0QRpAmUggZPElu3U4Jne03z+HCVyXDiTncm3BbCwW4HdHPyBEa7K6AANjDxuFKLmf0wg8MUxCXuCTY8eScvnDVCrgHVDCILTOgoIKAAdDQbkbf6Y1UIoasgDa1XAakL/WrlACWmDTBXhjDqDQWr/mgZjwi9qazfD229/FxaLsdpDuAuq0AExkf5yU6qMBF4glw7vfTfL8zhkwmERwXuPos2PjMTOVge6Ya5zAoANwLB24zgmkTVEGRmtoLV1VQENrsoMzKBgXHub3ZCXDUm1+30A0MN9wd0c/iGEgLTaY80dxehG7hCwoaJAqGJEbHuKdAKC0wXxbQ0AjvK7CXN//vV6vIyEQt953UcBm/TAdgOsCLLTWz3tQxl+4Qghsb2/j3r1HWJyXgIwCv2x4P+T+p0YfqASlwB8Puwa748hHARZdFwJWKCTTSpsHBTHM+690AnQFJkDDEmFXrw9q+WRHmRsjXYjsUgAlXFXApg+CvEw4RTt9ZxARFmC/o7SWz35npgALyEYH6WixJL8fmSWYqy7EDsDPA7Rch7rWeP3VHUwmJc7O14PI0XeSGmNwenraiYIE69u/8Au/0GzM/ofsALa2tni5XBZG633fm+2/JCGthPf994/BqgJkCOBQJwMdh3UIdndv8knpDyauBAQpQVgODmfIWV36XnZbSBtm9jP9aAgKdk4gBQXTdmHOOAHk04Gw/Bc5AQ6MLtAGMLYExtpYNmBruhZhqw3ocA3j2FVBDh8RhAIgckjzDaE9X03Q9vliSCmOSoNIowAaSIZRkkUMXYFNBZWbf6g0o20b7O9Nkl6R+FrxRq+1zjEEN01ANxgBlFrrmTGmvwiYIYig2gYfPFwAoso+P3IACdKbKwF2+GBA6TUDgDClCVsnEmqCkKPRak2Z5p8MHhABfIGRhgNHnzYd8DlL5ASQRBX2dz/k1LBlx7GxNW+jtS2VCW8cXsIsBveEj3AoBPcwEOywDjJsRHCGzsE8hCSyoKtQ/rT1n8avIfZzAl3noxUE1SgkX1sByFB//Xq4MfmbwQDou9/97qcMs0yNWBChVQ3uvbsA6G7URmuvd7Yj/pLAsDf6OMSPSoKI+wIGQGEnItI7A2OU69BDl2v3gylGMIFQJGTgBFI1IY7OHbH7nooxmDoBG+Ibo7uWae36AWx3oIEAICQBwiTKwv6tpL3A3IuHEiVIvhiW7igZMNKFEWHpMOw/oCCNcaVG3/pNNKwABA7AtwIrbbUOtiYaSpvRCoAQAqvVCsp1Cm4igI8JBDw9OfkCO/aOD8m1MZBlgdPTM3zwsHUv34M5StmJN7Lwk24wWucH3GRZICkN8oAtOIgUUqehVG/IyJTxPpQTCEQ+WTvnEjqFoKw3xhj0x3V6AkGZ0OECdlwYQSvbE6CUcUMzyWohMcF0OXCC5AskaUEIlFEUARhhBqnBUB4MMbaQ/D/CZCjCTCOAq+/uDGnABlpZwtbevHS9G3kdgLIscXZ2hrZtUZZl+N7aTQnw5hyAXK/XP2G0jkpBbAykLHB0dIbLZREwbx3ZQ2noQrgLlBLUH70zyZYCOUMTznQHDvJGf26rF9D1z3BOnvsKJ4APmQ7gGtpwpCcQDDQFdw6EYYJqgHA3hhDGDkQxxhfjgzIcWc0uih2WiHTCRJ/XR+In3pjyU+UH478oTSN6QJI0D1WFgj+NU1PX2rYDawVIaJTSdgV6sC+sABg3bDbtAXCrxmYc2I05gEIr9akeebdWZbTGZFLi/oNHdhZANPzD5t+tsl9eUcQCogMDT/r+I61A4Nrjs/f7C7/LcX0z0BVOwGMC3bxBHgEGfxAnkDQKuSnIxvHd7fBMVwo0AsJ3BAoCdFAFoFB6i6JOPWukgUJxl9Mn3YTuc8lz/oGh3i+7FACZseAjWoquoqPZzQVg2wgkScGYFlpNRqXAhBBomiZHAX4C4GJj8j9kB+BLgEqpV7XW8Qxe1wb8zjuHUKsSqGKCjp1xp21ozwxZCCBrrAm5J6sOnDf6FGSMKw6mo6DGJT9KDDtF8BE4ARpGAj4doBxZKEcbTsuEgXH6cWFGg7VlBBqtrGKO0tBKQAoJZgsBxE03GXZgN/nX4QvUC6Hk0oJwClqI37h9HcjNATBBdBGWEQeRRCjn7qoAmqwgiGZsz9bY262gMxhAOAxkpAT4NoD1xuRvKAVQbXtgtAZ5iS8/sbUQeO/9MycEGi+trdJNiCH53SOb2/OwFTgN8/MEomuiibCWHykEcVziGzgBBDn7SCSQ8gQ6LCDEBzBsIoKJS3cOMGWtoLWwHYGGoJSGELa3gUU/X7Aft5Y26VAUmvfyYTyg8fZ5fmis9n2JAS4gkrQgVx7UgZdIKkEeAzCMVhtoDRRFi62tbRiOG4HCCoAQAuv1OgcAvvPzP//zvDH5m3EAom3beajV538WhcC9+0uAZtkykI8E/IwAiTgi7gp4abtvwvlPMYJsujDqKALef7ftcQ/GXUsU0uOYQOoEBhHAVWVCSxBicuIdZMAsoZ28uU0H2I3MFhAOoIzKYmEYLkJNPhEWBPopTlGOnsiChZTeQWFfO8eQaJA7Z9QDvAmlGAhowHbAEruOQOIVBO1148AGu46UV5UAH2zM/YYcwMXFxUxrPTXMFohyxlaUJUAC7z9YArSLHAvEuLBVqT7/9UMuQi4A+OrcvkOTTT78zzEM4zfiEPxIMVgkIpZjTuAansB1TgD6Ck2BniXITDZbd4xArci2BvuqZqfgG+/KnojDJn1vroae9AmEUcSgxEeWRmySkiC5yMkk0RINKg5DOXh2FGATgoCtxp29BoVkJ94y7AEoyxKr1Qpa6458FhamNuZ+Mw6A3vne935ca20bVlwuqZXCzu4uFosaJycU6Ozno4CuTMW+U48yE4F4EOKbpIcgF+aH0cGVy8/3Q1AepFAsVMS751M5gaDTr+v+C1uIKX487BMIUw7DLlAgaCPsuDBlLA4gXAHD4vuxsaW5fQqWDVg7FPdqJDk7DXARGlEBSkVJEOMKwcHGNwO5+r8VA1njzU/tYDqtsFovu+86DPWFELi4uBiUAN3aDAO5IQcgzy8uvhhSbokI2hhsbc+wXiss6+nVLDCGC/OM7Wyz074G5bsx407D/DFn8VSLE42AqCEo1fUbcQLRoI/0vkyFoGsVDmYTJCkBu/dmNQIFjBZdJ6XRxiVKwsl+oTsHRUCg64wky/nnTgV46ADiaCAYBhqRikKsgQaOgtO7XV8mp5OVXBegnQzMLhVocLBXdOW/kF7unUBZlqMEISK63Jj7zTgA0axWn7Ptqn05SWuNrdkMp5ct1usqlJy9whFwhNIPZcHGDT9sBvq+DD91AhEmgJ7VF6kCJbu091wUGDyPOYGUGBOyBcdxAUsIMi7/t4pAxvQzDYh6BqF1pv3kn3AX5gG4JwLEP4lyKMjjKeg1IOppwsmItJxyb58O8CCTMk4PoHMA3GAyEVmsx280RVFkewDc35sS4E2lAE3TvKa0hq8C+C9ra2cbb997jHpVoNfGCxL6jN1puIEeLLJln7FcPhct/ECry9EzmEBa5x8VFPEMQQxFRTipznW1+sTwE8VOP0KbjccACEoQCqeZ16kDeSATqUBHEA0QBSBgwgAMxEWj/ToU9BRD0n+sQJSmG8E/HREhqWvi0tpAtcDOTOON13ZRN/kKgP++Ly8vo/zfPd4AONqY+w1FAFrrl4zXbPdIOxEODg5wevpNlOLPYOhlaBwAPAW4tF2BZPrmFTcJ14a4xk0KTna+YHLtKJj3Ua2wTz9yAhSIho7QW3OtxJET8CE6BbhA6HjC7kAAJDuOEAs/LciOzdZKQ7mnCzcWLJLsIgeqhsbXGblI+iCi4QAjxhxgBIYTrAHI91OIWA+wRwGjdM04MZBWAXtzjRee34ZqV2MhPowxuLi4iMqCAfBytjH3G6oCtEod6La1O4qja06mUygNfPazL+F//kefwL13H+Levb/AB48mODqdYd3sQ7e3Ad6BlQkWNkgggFnZ2XhGuayVk92ebubTyjqBIB0IW3qfyglwRlOAr8AFRAwWUq976MeeGWNRdA0NP3MxovF6YpGIBUK9iChHDsGx69xrmUQujRxNmRnIKgFTiv6x5UKxdt9Zngnox70ZNxLMGEYpaxQlYbXQ2fQvjQQoRhz1JgW4AQfgWIBCK7Xbag1pBfcA2Flt/+GP/gifePVV/IN/8BaM0VivVnjn3nfw4MEDHB1d4OGjS9y7v8TDx4zjU4OjE8ZqVdqSIW+DeddFwdrW2kkH/Hg/RygThn/kTiBU7wnTgbSN+ConoPtIoDss4A8ERt4dEFUJuHu+D4ctDiAD3CQQAe0k17mrIkTCINTLJnfGE5X4gLTjj0jHs8adM6NOsjvQInRlz664wRyPIgvxCMOdLoTWDNVq3NknCNJW9RhDxV9PAR7RATjZOIAbigC++c1vvtS2baG1BqRE4S6y9XqNi4sLPPrgAwgpIYXAdDbD83fv4j/74uvY2t7CbGuKqpIgGJydX+Ib3/hzvP32Pdy79x6+9Z0nePf9EqfnMyzW+2C+a6MFKgPRCw2wCm5BOfGjdApsBjtenw54J3BNJOCfw4ShziDQTyFKS4XeUZBjCRPYEIyTA7NCoRJFZ2Ph64mo9Ba/F9Hl8NTNCQjbf0NRT0oAvv+fvTcPk+uszwXf7ztL7Vvvm9St7tZia7MsrxgSm4CNk5CQDElI4jDZgSQwIcBl84UhMyQkueRJ5snkzr3JM0+GEDBYJrbkBUvW4j2AbdnWZq0tdav3rq59OXXO+b754yz1nVOnWi0jA7FcekpVXV1VXcv5be/v/b0/+NJ4hlYNQd7SFfAuEvXmAuJi0IamYeN4AuGQhDzjgbLflFLk83nouu5RAraf7jSA6lvm/sY7AJJdXNxqGgY4Y6CK4unLUxsQZDZA2Gg0kM/lLARXkqCGw8h0dCAejyOdyeBtb7sNd777TuiGjkqlhImJ07hwfhJnz13E4VdexYVJA4VSCNlCCqbRD9AkwKMWgUdiTafANAAGwIxmthCkUvF6MoGWFiEExqBI3W1DGCLCivGW3YAkuFXorvlqCoRYEloE3ORghMEkFBL1dSTd10TcCE2E7MLya6Qlg2mt/Ylr+F7KcKs4R7PFZ3qcQrNsC3IAlnMzTG6XNQYyqVDgJmC/FBgPFnKY/o3f+I23aMA/igygWq3uNAzDNXY/Ku+f0nL7uYxBq9cxc/GitcRColAUBZFoFMl0Gh0dHRgaGsfWLTeAUoJKtYxsdh6zM9M4dfoCXn7lLM5OlJFdVrFc7EC+lALXVICHACUG0BAgEYA0AK4D0C3HwE2hdOBCm26VzsHD4Auq8VcQGmVCmi8+xr0rF0oC3zCR++dt4+fMzgQYmERATOv5KCWebokfDPRIfnFf69DDwPRx+7nYBvSt+AqI+u5kYcs2YbTsKnDYm844MOcaImGKRkP3OAFxDNh/bAnHHINFA6aXkQryVVx/ywEEZQCapo07RI0gpd72jyQ2541C5w1IJkBh7XjP5/OYmpiArKpQFAWhcBjJZBKRaBTpdB/uuH0Ud911FyTK0WjUkF0uYXGxhFyujonJPA6/fBpT0wUUSxIWllPgehcgxQCSAmQJoDbhHAbAbAfBGpbRcdaCUrecmG9c2DFoz/YgXAIcFHcLBAiMwC8KQtwU32qbWaOzJjNBTSsL4ZKzYKVVpIMQUXi0uZKtWeLAbSFamYIFELaKgXh7/MyzGEQsFcQdBPDhA97X5sIUDNANIBbhGB+JoV4P3gXg8Ew0TUOj0QDnHNPT0wipKhRFpRemLmz9/d/9vX+gspQGSJgQqPbst/MB65zzumGaRUPXs5VqZWFhfn7x/MT5mXvu+a3skWNHc08//WS2UCg2vNHiP79TuKIO4KmnniKGrq8zGbOQ4wDSRlv7B2CYJpaVBahrDZCGDLbYgTAioJLDXWdoaBo0TUOtWkUoFHK9v6KqUGQZ8UQCXd3d2L5tAMlUEtFICFqjjkqlhAsXJnH48Am89to0Tp4pYnIamFuMQ690AFIGkJ1L+3tlNYBrgKlZ190SgrdmCUGMQXHSz1eDtzgBDoAKoCIPkhrzLgnxrApjAKPWUhBGm7P2HgFPQtrX5kTkBXDBIfhKASIYMW+39IO469j9hsoRMOREfPQHuwQwmdUCzMQ5Bvri0I2q51jSNA2GYWJmZhqyLGF2Zg6JWAypjk6y5c4toJKMVCKJru7un1UVBUSmdluZ2/qRwio0CsDk0A0D1WoF5WIRhVKRXbgwOTU4NHBxeO3ac0vZ7MkzZ84cfcfb33529+7dM+cmzpXQ3GL/n9IhXPESQDeMXiJs5nEcwIpOgHMQUFR4CfqaRaQ3hKBXOPSKinA5IsyweFFqWZabG3Ds1LCQzyObzbrlRdjGFVKpFAYHx7B16w0AGAxDw/zcLA6/fBwXLszhtZMTePXYEcwthlAoxAHWCdAMICUtLSrFmfd3nEFVyBLMphOgFG5P3yUAraJDcMmSwHmcDxvgxKN0bIlo2s7GtLgA3gjP7c/Kx+N39yUEbfj18xCIZ56feN4Pdap4YYcAacU/fY6Aezge3GUBcmYtA1EUAq1uolqtYmFhAZVKBbquY2BgEFu3bENPTxe6unpRLVdgMEs3sFguo1gsY3Z+CQ29AdPQodtKylyYNyFEslfFy1AVGaFwCPFYEp1dfbS/f2hYCanD8WjsNk2rY2ZmGidfe20qnU6/evrMyZfOnDzzQv/g4NEHH3rwouAM2H8WZ3BFe2WPPfJI+MLExLTeaHTA94Ve2gFIyGMZU92vomdUhaJHoZ4ZQKzQDU6Y98XaB3QkEoGiqi7A6DgCSQCfGGMwDMOVjFZDIcTjcSQSCfsch6xI4NxEpVzA2XOTmJ3NYnqmijPnOOYWdCznOWYWgXxJBqvJFtgoxa3uA9EBNCzHwE2A6VYpwU0bvIPQuqNC5CatnQTh/Xm0+DkJKEOoG72oRCHJEiSJQlUkyBKBJFmoPqECCEm87D8Poi9kbBYEQH09fB+33/NaEVAO+Ob/3ZLFOzcQdDg2uwAc1SrD9dcs4eO/H8Pc7Byi0RjWjY5hdHQUiUQctZqGek3DUnYJpVIZlUoVumGAmQYIlaCqIciytY1akqyOkb0JAsxWVuKmac8eGNANHbqmo16vgzHTkleXZMSiESTicfT09CCZSCARj0I3dUxNTrFnnn3mxWefe+aZEydOHopFI4cPPfnkvO0E/NnBm9cB/P1Xv0oSiURvrVaboZJEDF13gZrVOACAwJRMnFePoWMgjCQ6Ic+lgYoMxs1mz1g4KGVZRiQadQ2fApYACSHeswM02n+L22gx872mUCiEVDqFTCaNWDyKRCJizZhDxtJSDqdOncOpMxdw7EQeP3hxCUvLCnKFBGB2A0oGkOM2pmDz/80awCrNUsJpTXLbCRBplY6AePn7nlSe2iuxLSegKLL9EqwMqNnaExmGvsUgrRtC0ar7KSjsOGWAb42aODHYnhYMHx7ne7+Ai2ckohXElBm8/+dkvPuO7RgdHYcaCqFe17CwsIBsNotarQ5mcihhFbFYFJFIBJKqgEgUsqLC0DUYuglNr0OrN8BME7pp2KpTACfW1mQrgFBQSYKshqDIEkzdBDNMcMNArVJBrVKB1rD2isRicXR0ZDA40IdMJg1Jojh79oyxd+/e557Yt/fRV44c2Tc7O3vcbn+IzuDN6wBUVR1jjJ2mlLq72Zy01OKlOyB7QOuHc0hUAgsZ0JUaQjwMUlNh2tE7qF9MCUEsFrM6CYIElFgWiA6A2A7Cf0By2ymYpgld113deUmWEQqpSCST6OnpRmdnJzo6OwBuolorY2pqDmfOTOIHL0zhpVeWMHXRwPxyDHolbeEJShoIRZvoPdcsh2DaDoFpTXwApLks1C+g72oj+tqKTiuOEFAqQ5YoZIVCkqi969AW5LAJPeL4r0gQ8o4E00scGSTAWQRoIwhYAWmdzbf/JG1F7zlBRJnBteNl/NzPDOHn7r4BqXQHavUqZmYXkMtmoWk6VEVBOpNGNBlHOBoFA4NWrULT6igvZ6FpDdTrddRqNei6FdHrmmZ9z3ZWaJomZFluBgr7tciUIhSJIKQokEIhRJNp0EgMsXAYhCowahVolRrKxRJ0Q0copKKzoxODQ4PIZJIwDQNHj746ff+u+x//3ve+98Brr732dK1W02xn4CenvHkcAIAIgA2Kovy0ruu9hJB1VJI2UkrHOWMJ5igEOVEYrWRQWVJACbH17g1b+ou3jRbhcBiqqgqS1HYmIDiApjKNYPhtnJDTWnNENg1dh2EY0HWrBeW0JvsHBpBOp5Dp6EA6k0BDqyKfL+HU6Qs4cnQGx15bxomTBVyciaJY64RhKoAZAZAC5AggywDVAGhW18GsWGcXUORe8JBSb/ovgHzOASzLEmTZIllRStzfNc1UZP75NQH9jsGbvgcdMcQvanLJQ4oKpCK0gIDx8Cyu21THh397J268aTMokbC4sICZuXlUK1WooRC6OjsQT6chqRRaQ0NhYRHVcgnFQtFiAVKKUCiEhF3mRaNRhMJhqKEQZFl2z87JZCYM3fp+G3UNtXoN1XIZuWwW+UIB+Xwe+WIJhBJIsox4NI5wPI5IZzdCkTCoCejlCsrFAhqNBqLRKAYG+rFmaACKquLs2TPl++775sNPPfXk11955ZVDpmkaVo34k5ERXHG+7N9/9asUgGI7gy4AQwD67MtBSuk6SukmKkmjzDSVdk6Bt5QIfs1MO9pLEmKRiDfiu2loMysgnj61WJc2MxO3RBCkzLjw2kzGrHrRtNZyO8snwuEwwuEw4skE4rEYEskYONMtBSQaRS5XQ7FkYjFr4NTpJZw4NY9T56qYXojBKIUAGgfUpJ0tOC1E0+4+aJZjYDUb9LNBRWJhCgQERLLejyTZDkCytv845YFL0W0ZOfay/IIFQQEg2GES4T9CvM/pPrdIXAJp4VkQAGFlAds2FvBfPvZ23HzTdjQaOiYvTmNhfhGmaaKzK4OOri6EQgqq9Tqy83Mo5HLQGg2oqopMJoOuri6kUimEVBWSLINSGiQM2lp5CstiuAiG8iZ+1Gg0kFtextzsHKamJrG4uAjDMBCORBBLpRDr7EE8lgQ1TFRLRZRKJVBK0dfTjeHhYaTSKZw5fbLyta997cFDh/b/y7HjJ56znYD543YEb+gUjZ0V2LA4ZAAxAD0ABu1zPyFkLaF0PaV0AyFkiJkm8ej6ObsFRAfgywgi0SgURWktMfwOwfc7BDwvE8QDuP8s3E4IgWEYqNfrrsNgwiWlFpEpFosgmUyit78X6XQSPb3dkChBuaLh9NlZHDk6j6PHF/HSkQLOnCOolGOAEQHCvUA4BUiKRWACA4yK1X0wStYlNwDOXN09KsmQZAmUEkiShW57wTwh0qMVAxD1/lsXiDoOlKzyqCHtdQDsLyqs1nHz9ip+755NuOP266HrBqamprC0lIUkyejt7UGmqwO6rmF+bg65pSU0dB2JeBx9fX3o6u6GqqqQZdlP/10FgQuuoYtS8kFtay44BdO0HMLi4hJOnzqFyclJlMtlRCIRJDq6kOgdQCwUglGqoFQowDBNdHZ1YXx0BOl0Eq+9dqLwT//0P7/27w9+5/8tFkunLEbajw8jID/qP2hnCKJTSAHoF84DhJARSulGSulGDnQyYdc7F0A8xyAJpVZqJ0mQ7LNbd/rSf1tayHuQi1+8uFTUoybEPb93bq/X681V5gFMNOfsDKk4JUsqncKatWuQ6Ughk0mCc4qL00s4M1HA8RPzePb7ORx/rYTlQhiNShTgSUBJAmpCABp1gJVBWAmEVUFYA7JkWl14SiBJBIRIbsegOQocRIojgYSnVhlxuNmVmL+Tdj7Al/47t6zpmcGv/kIGv//BOxBPpnBxehZzs3NQZAn9g/1IplMoVktYuHgRpXwBajiMwYEB9Pb1QVEUy+GT10/jtmdKW7gqXuMX1s95Nkw1t0zrjQYWl5Zw5NVXMTk5CdM0kUhnkOgd4IlEitB6HcVcDiZj6OrpxvjoOkTCIew/uO/Ev339G//Pvn17/z/DMDShLGBvagfgL/vtLMGfKXSKWQKAIULJiESlTYSQUcZYQtSD4760nRICSZKsoSNJcoEe2qb29zRsA6J9u1Ym5xZxRG802g62BOEMYkkhSRJCoRCi0QiG1qxBZ1fGGoiiMkqlOmYXyjhxqoKLFzmW8hRL2RomLnJkCzKKZRmoyRbVOawAEoVMdcjE6jgQ3gDhdQtj4CaILacNOKAp9XQTWhwCadU3IAFZgac12C7iO50WuYS3XV/CX//5ezA6No65uXmcvzAFbpoYGOxHurMDhUIeUxfOo6Fp6OzsxNDQEBKJBBRFCRL7vMzAz4VdE01peVF0tgUT8hm9Z/W8AHTX63WcO3cOrxw+jEKhwJOZDFIDw0glksSs1FDM5UAlgjVrhjA6Oorl5SX84z/+w33f+MbX/zafLxy3s4EfaVnw43AArU1lnx3+/Ve/6tzuhK8wgA4AawEMOJkCpXS9JEmbObCGmabqasXZUZ0Jo6OUWCCOoiiWcxDqw3bGHxgZOHdJR85tmlMGvM6IJGYJzHYKVpSTEVIVxOJhdPd0IRpNIBSOIt3Ri1qtjhNnizh6rICnnl/AyTM1LGU11CsJgCSBaBxyOAVJDoNIklUu6HnALNtlRBUEDS+mQGhrPS8i9sTXJiTtsoCgPYJAb+YiPv2xTbjnA+9EvdHA+YkLKBVL6O7pxuDafhRLJZw7cwZ6vY6e3l4MDQ0hKnA9rsRJXBBrbYHngVT1pnMQ8CBwC4ZxHYKAEwmORdd1TE/P4Aff/w8sLizyVKYDHSPjSEWiRMsXUCqXEI1GsW7dKPr7e/D0U4fO/89//h9f3bd339csUomLD/A3qwNo5wT8myiclgn34QkAEAXQa4OLA3bpsJZQulGS6GZwdJmmKYvTYmJLklLqGpoDGLlfvO1AuMhoFLEB3wGja5o1p06u3MfpH6SysBBL9y4ajSCZSmFgoBfd3RmEYmmoShyT08v4wcsFHDu+gJeO65g4m0O2EAMaKqAmQOMdoErcVfChZskGGB1cQehU+chKrUrC/tFg0gYjIJCpidt2FvClz96KnddvxcWpaVycnkUorGJ4eC2IImHi7FmUcjl0dXdjzZo1iEWjFoh6JU+iIYuLZgOYq03HLGYHvu3T7lIKoUSwHQvAYRgGZmZm8Nxzz6GQz/NMTy/pWDuKGAPK+Ry0ho7+/j5s2rQRy8tL+MpX/vJ/fPMbX/8rxvm8Lxt4UzqAlTIBssLZJVb8zgc/SK7bvh1CphC3ncEat3QgZFCyWpHXcM47GGPUoyXHGJjdCaB2uUAFMlFL9Id3uInYHl8PXkd9xU9+XIESgkgkjGgsis7ODqwbXYN4MgFJSaNUbuDZlyqYPJfF8TMFfO+FMopFA5oZRYNFwI0UQGNASIGkUFBooKgDZg3ELNhAIxOGorhQzxPh0scSFPABynP4X9+v4it//itQVBVnzk6gVCygr7cXvQP9mF+Yw/mzZ5FMJrFu3Tok4vErGvFFw/cYt7tWqmm8rRkfD9gfyYVFtQDAWpbKcN76PZ09exbPP/ccCOO8a3QcHR29xCwVUCwUEY3FsGnTBiSTcdz3jX878KX/44tfKJUqr9jZwBtaEvy4HcBqnUCQU6DNoxFub/V3PvhBCE5BAZC0sYQh+7IPBMMSlTZKkrSRc55kjHk+B3eunPMmjmDB6i3MRksKj0PTtB/bh+cAlk5LU1FVRKJhJBIJ9HSnkUjGQJQoCOLQTBW5goxivoqJaYbFpSKeO9rAsSNlFEsMqKmAJAGxJKgas7BGMAtTMDWAlQE91xyl5jYW45CYHFEUAiRjy/jUR3rxqT/7VeRyBZw/fwGccYyMjkAOKTj66qvghoGRdevQ2dmJcDj8RnhMoYvkrf+5r6PkSeXdTE9wBk4J4MsImk2FVuMHb3Ya6vU6XnjhBbx24gRPZjrRO34toswgpeUcTM4xMjKM9etHsXfv46fvvfezn52YOL/PdgL6G+UEfhIcQNDrCF5Wf+mzmLc2ABjjY2PmO267jV+3fTuxAUbVxhMGXYdgZQojsixfQykdY4xFmJ3SEwHk4YyB2OWC02mg9kHvyFH9uD44p/3p11twSUKKjGgsgnQqhUwmhc7uTgwO9iEai6GqScgu1/D943WcOl7Ey0cv4tCzNVQKWdSqacCMArEEEE6CqklQiVqTkYblDIiRE4ajdAAEa/ty+Kf/65244/brMDMzh4vTs0jGohjbMI7ZxQWcO3kSHZkMRtatQywWu/w23ipbfa0tvibqwwXr9W6VvkQW4Kv5IWQGrmNhzFrgziEA1NYU4tzcPA4c2A9uMt6/fhMyyQ5SXV5CrV5HX18fNm3agJMnT2S/8MX/+sVnn3nm32CtNtffCFzgJ8UBXMoJtHMAaGP87c4aAH3N0JD5vl/4BT4+NuY4hSgs0tKA6BQopWOyIl8DkLXMNBWRiORO3tnAI6XUJQb9uB2AQ3kmlEKyQVHJIcbYP1ObMReJRJBMJtDb14Peng5kMgmYiKBYYpjNlvDsSxSvvnQS+79nYuFCFrlyDbycAJQooKaAcBegyIAkgfIKiJHHaPdhfOu/34YdOzfhwoUpzC8soq+7B90DvTh39gyWl5awbt06dHd3IxQKvUG1krcuF/v+/rRfjNJizc8F43a1F2HpKXpKCh9pDHZW6OeSNDMFjkajgeeffx5nT5/mfcOj6B5cC7NQIqVyEalUBtddtxVzs9PaV/7yy1/+zoP//g/2sdu40k7gJ8kBrOQEXk82sNpzHUDjuu3bzd/54AcdxQ0FFmmpX+g69AFYSykdkyTpGkLIgMkYFZmJnDEwsylcGSBP/SNzACAExNZeJI4DsLsf1L7uZ0VaNFkF8XgMXT2dSCYSSCVUKJEYKvUICGP4/gkdr7ywiLmlHKbmJczPl3FuNgZdYyiWo9gyeAKP3PfTWDsygJOnz6FUKGJkeC2SnWn84Hvfg0wpxsbGkMlk3pioLxh/M9iLbV147Yc3U/rA1q9o/EI54GYTbvTnXtDQZrV6yWXw3Jcxholz53Do0CHe0dODNZu2ElquIpfLIxqLYMd121GrVfDpT3/ybx5++OGvOMfqlXQCP2kO4IcpCa6EY4DgFOp333WX+Z4773ScQsjGExxac5+dLayVJGlckqSNHOhipkkgGCLjHMwwYAq8hSvlEPzG76b9jgNwjF0oW6iQGVB7my6BrdcoRER3W4E9/6CoEmRZQUcmjoGBHsihBBQ1DlVRYXIZmqbh6/c/i9983w709ffi3MQFlEplrFkzBDkSxpEXX0AymcTw8DASicQb6BT9dbllwEzIAryAnwDqrXCbZ9O1p5PQWutzGwvwM0uZ2Gp2nAVnyC4v47vf/S6ikQgGN1/P1bpGivkcVFXF1u1bQYmJP/3fPvYXjzz66N8CqF1JJ/CT6gBWmw1cSWcAeBU8/fB2LZFINMZGR3U7U6ABeEI/LHrziCRJGyil44yxJGOMOFOJxAYZnZ7/D+MUVkr/HUKU6wRsHkSLA7DvH7BNp4mB+P4WOLdaqCEFsVgMmXQKU1PTuPHGm9HX34eL07OolisYWjOEmt7Aqy+9iDVDQxgaGkI4EnnDuySBNf8KrT4xMrev+RHADWGumJNVFvBWADAg8ntwBGZdr9Xr2Pv44zAMg6/ZfB2iDCS/vAxFVbF9+zaYpmb+yR//0f++/8D+f7ySmcBPsgN4PSUBfkhHgMu4DQBq8Xhce8dttxmbr73WXDM0RGCRlnrsLMHJFPoIIeOSJG2gkrTBNAzJwQ4cYzNtkPGKpf/2c1O73pdVBbIkW6PBsOjTztg0cRyBn7svOhXhZxftt/kSs7OzeO9734uhNWuwuJhFpVzG4No1WM7ncPTllzE6OoqB/n6E3giU35vLe1q0QUbrT8XhB+94gCNoAQm9qX87Axdfg/d23hQ+tac+OQf0RgOHnnwS+eUcH9l2HWJEIbnsElQlhJtu3olCIaf91j2/8YlXXn31m1fKCfykO4DLBQhX6xh+WCfgzxbEy0pPT09j544d+nvuvNO025HiENQaABupJP1SLBYdZSaTnQ5CkIryqtqAtkHSgPTfkfMihIDKki2UqbjpP2PcjfRUmJ+AYPiezoJvwnJpeRnbtm3DDTfcgFKxjEKpjP6+biwXizjy0ksYGx9Hf38/1Cvd228X+f0kn5YtUk2Qz0/sCRr68rQKPWk+byEK+W/zZBBC1Bc1CTnzOhfDMPDss89iYX6ej27biQgIyS8vIxaL44YbduD48SPz99xzz4cXFuafFJzA624R/mdxAJeLDazkCOgqHAIu4+cgJyDKQDEARiQSicuyTLq7urRkMpns7u7euWPHjk+EwuEdI2uHoKoqKKHQdR2apkFv6Fbr0dd5aJcBAPBkFE6qL2YFYieA2JiArCjujAQVyxFx6SfxTvY5z1kul9HV04M777wThm4gl8ujs7MTpUYdLz7/PMbGxt544w9A+1tQf/h6/xBqdv+sB2/T5/ezArnV4gNaa3qxQ+AYOvNgBc2WoOe+Djhomnjm2WeRXVrio9fdCLWhk9xyHplMCjuv34HvPv7IsT/64498uFatHbGdgEMdftM7gNVmA7gCGcHlZBZBJ5UQEkmlUt0bNmwYy2Qyw9u3b18/Pj5+czwe749Go3HTNDE9PY1z585B13WEQyF7MCiKdSNrrQODcUusQmtAN3Qwk7VEf+cgpjbG4GQAkqCTCCCwEyDORbRL/2E/L/FsAqZYXFzE7/3+7wMAlvMFZJJJ6Jzhuaefxtq1azE0NPQjMn7B0AXgzqMr4QKBq+jt++neLpjnXznPmhGccxdodH9nf3/i7ABzjN7BDDwlgoMrWOzBgwf2o1bXsH7nLWCFIgr5AgYG+rFz53X4u7/76r4vfelLH4K19dhxAuxqcAA/SkdwqUgvAmfhcDic6O7uHhweHt7a2dnZvWXLlvXj4+M/lclkeiRJgm6rCzn8AcAS8SgUCpiamvKstjZN0xIxVVXEolFkMhl0d3VY239tkQpdN2Daz+fMMLiGatf4zCYvOYbu7wSI4hmXTP8deTXOsZTN4rc++EGoqopatWZlMBLFM888g76+Pqz5EQJ+/lQefhwgYJKvpW733KfNpeAIGBOjv2W4zulA/SE8X30Ca+UxvD/0IchUsjchcXtvIw90Pq5OIbdIRIau49FHH0M4EsHIluu5sbxMKtUartm0Ed3dafzZJz7+f+/a9cCX7M6AM1LMrxYH8EY7gnbdAOe6BCCcSCQ63/a2t91x++23//zAwMDOcDgcD4fDMiHEY/BB9b0YuQ3DwOTkJAqFgmuQLqnEdhjcQd8VBbJ9OTQ0AEVWLKdQby7GcBwAhJKgpRPgZACS5En/WzbsiPU/gJmZGfz8e9+L4eFhW7qbg0oEz/3HfyAejWJsbAzxePwNBfzERUccvC1+wgWk30nPRYP11vx25PbQhUXuvzd6WzMkTWcAAAdqD+HR7LcxX1pCPBzBdckb8QHljxFWw9auBLFEsIMAc7AA6z+LPQgGMKBar+KhBx/C4PAIXzu2iRTn5mAaHDfdcgOKhWXtl9//S380cW7iodfbHnwzOIAfxhGstoMg3j+kKEr3TTfd9FO33nrr2zZv3nxnZ2dnr67rLpAXZPB8BeEJZzqRMYa5uTnkcjk3LRdXqonPY5qmu0yFcw5VURBWVYysGxawAAJDt7IFZpouMUhyxFNsJR2xIyCCfR4NBBsj0BsNhEIhvO+XfxkAYJgMskRx8swZ5JaWsHHjRqTT6Teuz++v8T1IO1qO/WarjrsJMrMI/a01fxB12E3VBeCOB5UNwIH6bjyyeB/mSkuWKhMBopEotsZ24tfkP0IkFPFkLIxzELd0EEsA8e8C2cVFPLFvH9Zv34GuTDeyc3OIxeK45ZYb8Ogje47+4Yf+8EOGYRz3gYKrOkl4850uZ+9b0G1BG144ISSaTqeHb7vttp/9gz/4g0+8733v+5M1a9ZslyQpbm2oaUZ6v1AE58EtoiCHkEgkIEkS6vW6u9xE5PQ7P1MfyYcxBq3RwOzcPC5enMbc/AJy+QIMw0BPTxei0SjCkRAkKtmahobL/pOE9N8P+EEYpyYAisUifuOee9zXTynBQi6HiVOnsGHjRnR0dPzQoh2rSvnFa35qr48H4G3JMc8zuLhAgOoPZwK4yIImAZuPO1Tdg0cW7sNMacHWcCW2uC1Dji1iXprCRvM6SLLs1RngTfxALAHEtkUkEoGqqjh94jhPDQwgpkZIoZCDaRq4+ZZbehYX59WXX375SXglyK+6DOByOQSruaTxeDz59re//a6bbrrpV8fGxm7s6OjoaTQabqodFOFXMnD/bWKUF7ULyuUycrmcKyXGg+TJgBYH45QLTFA2dhSNw+EwYtEoIuEwhoYG7J0HwpJQoSSB4GQcpzA/P4+f/dmfxbrRUc97OXDgAMbGxjA0NORR3L2SUd8xRE9vv6Xl1zQa5unpBwB+HADhbqRFAIjI/dN9gDAb0AQeD5R34+GF+zBTnQehlqy45Hx+xFJoDqkhXBPejl+hH0ZEjXrKD8vwma/zwFsmCw8ePAjGGNbvuBna4iJqmoYbb7wBhUK28esf+LU/PXP27P2w1qCvuhSQ8OY/reQIeLuor6pq/Jd+6Zfe/9GPfvS/v/Od7/xQd3f3BkppzIn2QQbnj/gr3RZkwOLPqqoiEom4mYVojEETfz5A0vM7ye7567qOcqWC5VwOFyancGFyCjOzc1jKZlGtVpFKJUBtZ2OYBoxGw2IUShKYaUJRFfz07bd7/taLL72EeCyGNWvWvDHjvEK85j5ev9jXF79Rtz0nfq2+VF9s33kds1XTE58BNl8A92QXB8u78fDCtzBTnWsSrwgFtbMAiRCAUnBuIseXsCBdxLixFTKVvdmGP0iwVnLRwMAADr/0EkKqjM7eQdRKJRRLRWzduk0Kh5Suxx9//CkAJVyGyOjV4ABWynaCbpM2b968/mMf+9hf3nXXXfdKktRTr9c96H1Qah8UZVa6rd1ZLB0cvUBHnjrIuP1U4pWoxR6OgB2huD2ZVihY8/rnJ6cwP7+AUqkMAEilkqCUYPriND70kY94nm8+v4zZySmsX7/+DeP3+0U6Bav3cvvdASDu+ZVIEPKo9rQYP+x+veAcRP0AcA/YyMFxsLQHD89/C9OVGat5IlmfqUQIqERAiT1rQQkkQq1ywHYCY/oWwQkgUJfAwQicTIZKFKlUEiePHUOqrx/xcAT5XB4SlXHjjTcMvfrK4eLE+fM/eMsBvM7SZ8uWLf2/+Zu/+eHf/u3f/tfu7u7rq9WqC+y1S/GDDC/oTANWlq1ksMRp4RECVVVdoJAGbtm59DyBX92ohVREiMsRMEwT1VoNC4uLmJyawsLCIq65djM2b9nsOUh/8B/fw7rRUXR3d78hk33cJ8MGT+TnLTlCi9FzcSAouITytPhEwQ9RMjzgMQcLD2PP7H2Yrs+6WAixU36JEjf1J7ZDcEBZZtpOQJnEuL4NEpWtFe8QxpGFYSI/2JhIJDA9PY1yLovOkVEQTUMun8PI8DpkMun+Rx599CXTNOZW6wSuVgfgOfaTyST9yEc+8iu/+7u/e2BkZOSuer2uOOvB/EbtB9+or8fuSIpJAslGvAy6zf88jrNwUndJkhAOhxGJRBCJRBAKhaxWoP232gGM7YzKjz0EOQsxQzAMA5/+zKdt1F8HpRJOnj0LMIY1a9Yg8kb3+33QX8vrbjvKi0Buf7sOjZ8bAKDF+DkHDub3YPfMfZipzVq7BSUCIlmGb7EtYS1mcbIBZy+jrXDJDIY8W8aiOon12nX2jAZ3t6J6FtI4joE1M5ve3l68fPgwkqkUMqkOaysSN3H99dszJ0+9Vjl58uTTggNgbzmAFU7veMc7Yvfee+8/b9u27c8bjYbMOXfXRzn68+JZtbn04u/FlVPtjDnoMui6P1sIup8kSVBVFaFQyN1KFAqFXNadH5cI7I+vwlkAlt7hO++4A1u3bYOmNaAqKjTOcezwYYyvX490On3FUf8VVZkD0H7PRh9fxIevG+CfC3BLA7+Ul2dIqPlcB3IP28Y/DSI5exmJXe/b0d/OBNz2KrVl0niTu2AaDGaogYHyOOJyEpRK3lkB7iUFie9XlmXUNQ1zFyfRuW4MMmNYzuawdu0I+ru7+h559JEjjUbj4mqyAPlqNv7bb7899vnPf/6IruvrdF13l02spq5eqcb2bDbyAYDOz844cFDtv1JnwR/pHYfgKOskk0mXKVir1VCtVqFpmvv3/H/zUidKKX791z8AAKjVagiFVBx/+WV0dXW5Lcs3yvjRZgzXBw16uQEBwq28Sf3z4Aie/n+QcxBLB3AcWH4Eu2e+iYv1GRDKQUDcJazucUMgLG21tyQ7kpOCA5BVCVGeBF+WYIQNyLLcBhMSxEsFEHLL5s3Y/dBDyE5NYGBgLSqVMiYmJnDjzbcM3fXuO9+76zvfeQGWjNiKewivWgfw8Y9/fMtP/dRPfavRaKxzpLxWU5uv5AiCHuu0xcgKW4OCgEHDMNwNtv5o3o5f4BisLMsIhy1RUAdA1HUdjUYDmqZB0zSUy2VUq1UEvXcx+t9y6y0gVEI2m0MiEUedcywvLWHr9u1XPPVvBeUQvBhWjPgc3kUf7ZynT8zDwyQUo74o+ik85oml3dgz/W1crE9bKxSIs3wVtjiy9TMVUn4qrlB39r1yQFEl9KqD2PLyOxHqDQWWcWIC44ExXUBQwjWbN2N68gK61g4jHo9jenoG68bW4Zff//479jzyyAOapn0fzUEh8y0HYJ927dr18x0dHXsqlYrbZ19N5F8pA7gcNN653YmeQfcVswanl+93Ck4msVJnwSkdVFVFNBp1sxLDMFAul1GpVNyz0950Sg5mMvzq//Kr0DQd1VoNnZ0ZvHr0KLp7ehCPx69o6s/99Xw7ENCT9nsFPzzR3j/nLxo/87YBvfP7zEMeAjj2Le7GnqlvY0q7CCJxa+kqBagQ7SUn6tv7Eihp7kAUz4oio1cZwJZX3omBzkFk0pY0mt/4XaqyD4cQz+Pj63Hi6FFkpybRPzCCUqmEixcm8bZb377u1lvf9jOHDh08bNt42yzgqsMAvvSlL926YcOG/eVyedXGeylH0K7OD3ISQTX/Ssi9mOKrquruFhQ3HK3UffB3J0SnYAmCJpFOp5FMJhGJRCDLsutw1g6vxXvufg8uzswhGg5DikZw6tgxrBsdRTKZvIIOQGy3eX4MBPx8KUILSYd7Irsv7Q9C9n0jvx7jn9+NPVP3Y6puGz+1W3zUno2QbAxAoqCkOYZNbXl0AuoavyTL6FMGseXIOzHYOYTu7m6Ew2EPzZt7+AsBxg/u+XxMxrA4P4fukXWgjQby+RI2bBhHuZiXn9i//0VY04LmWw4AwN13333b3Xff/ShjLCxGOj/K7zdWJ7X2OwE/WNeuP7+Sgwh6DUGG688cHBDQcQwOCOkf7/V3LIIclJMhxONxpFIppNNp1Go1fODXfh2JZBpzcwsYHBzA1LS1w29wcPAKqvny1nSfrLSl11sLi60+Dw7AvTW/d7mLkE4HgIDO/Z+wjX+yPmml/RJcwI9KtuoSBSTJYf45n21zFoPY4J8kSehThrDlyB0Y7Gpj/D7vx30yY0FtwXQ6jVdffhmdXR1IpjqQX15GOpnGyOhw/6FDB17LZrNHhBKAX7UlwJe//OUbb7755r31ej0apMUXZHSigYiXQffx/z7IiYgROMi4g8qAINRevO4YfCgU8mADpmnCoSz75xTaYQjO5yJJEpKJJK699lrMzM5BkSkMKmFm4jzWb9hw5Yyfe+f13SSct9b+3sGdVpzAO+LraxsiYPQ2AGATST5PzO/G7gv3Y0qbtMIkadb5sIE/2Gw/d/M6be5I5Jxbxs8AiUrok4aw5ahg/CG/8QcIkCDY8EW+gyzL6Ojqwuy5c8jcPIBwJIzJCxdwy6030dt/+vbbTp489RiAaTvYtzgBejUY/3e+8534zTff/M+VSiXKfJLd7VLvdrf5U/iVnEdQqt8uIntm9QMGf/zRfCUgklIKRVEQjUaRTCaRSqUQi8WgqqrLRXCyBZGb4LwGTdOwceMGME6RzxeRyXSgUMpDkmXE4/ErwvfnbVdutzF++JV6/Og980Z1TzcgwPh5wFSfA/jN7sHuifsxVZ9sbk13gT64Y9ZWrW9/V8TZj+xF/CUioY8OYcvxO7xpPyWe1yHOFjDmc8z+joAHEAY2b96CbHYJeq2GRDKJbL4A3TDwM++6c3sikbjGDvRSkL1fFQ4gHo9/vFKpbGsX9VdKw1dKz1fqAojGGuQ4gghFQWm7QwYKuo/zO9GxBDkDa6Go5QwSiQSi0ajLXxCdgPNzsVjEjut3olwugZsmYukkZicm0NPTc0VTf09Jj4D6F0GLOuFpzYnMudbWnX1f5lfqbZX7drKHvTO7sfv8tzBZm7SegQooPxEvHeN3gD/7exGNi0vowyC2nLgDA51D6GqT9otApSgY4skMHFAzYClJMplAvV7H0twkQrEYODcxv7CAndfvGNm0aeN2WJL2jgMgV5UD2Lt371itVvtkUOq+Utq/Gjrvasg7TkotRlnRuP0swSC2oP96kCMR8YF268HEboDjDBKJhDtu6pCbAGDt2mEsLS8hEo2ASQSlQgHpdPoKRH/uS829M/ViTeBX43FuY56UnbVs5WnWFD4hTtiDQhwttwMcT8zswZ6Jb2GyNgVI3LUO6hi+Tfyx0D5ngTKxN6sTt9sHDlBTQT/WYMspC/Dr6e5GRDR+OHx/JnQtWo3f9m/ezURil8h+7LrRUSzOzoIrEiKRKCbPX0RPTx9uufmWnbAEaeWr0gHUarWbCCHJ1bb0VuMY2mEHTiQO+tkfuf3GHXQOum87ByC+DscJtHNIzllRFIRCIcRiMcTjcUQiEdTrdawbGYVpclTKNaQzGZTyeYTCYUSj0R+S+CMi9L5L2xXsnroP//DaXyBbW/SkvgxeUU8eyPBr3sb8gJmHO9CMps6j9k3vwUMT38akNgVQbvf3m8ZNqBjphdQf8K1JB6gpYwBrsPX0HW3R/qY3gu99eDUE/fsGWsBQ+72sGx3FcjaLermCeDKJfLEArd7AbW97+8ZIJDLargy4GkDArSul6pfCAi6HHNTO+IN+365rIBJ6/Lx9B6RzrjtCIM5zi793Hi8+r78NKJKLnPR/fn4e127eCl1vgJsmQrEoZs6eQldHh5sd/LCAHw9E5oEHz38D/z7xb5ipzePo8mF8dv1foS85aGUdvjFeL/fBh/a3KPmivSgLB56Y2YOHzn0bk8YkQLjd37fTfAovq484eEBTLRnc2RLNAI2gk/di4+m3obenD+l0Go4eZEuvX9gJgCC5cc68S0fFrdS+YyakqqiUyygszWJweBxsfh7LuRyuvfba4d6+3nXnJ84/5ysD+Js+A9i9e7dMCHlnO8O/VDkQBPS1a++1A/vEqL9SCbBSWbBSGSBiBO2ASn8m4Acjxc9Hq9cxNDCIXC4PRZXBVRnVUglJ+0D+YRJ/Af3z9vFt43/gzNcxUZyEZtbxWu4U/uLUf8HU8iR0Q/eAgN7WWGurj8NrZC2GL9zv8YsP4aGz38KUbtX8xDEPKkR6h+5rv+5Go456o4ZqvYJCLYflWhZL1UUUCkUktAw2HbsNfZkBdHR0IGxjJt5sxJ4KEjAAxm22J7P3CnJmrZVjouZE82eH7u0wOzVNQ0d3N5bm50FCKkIhFdPTM+jr66M7rttxDawNVi04wJs6A+CcDxJCtgdF8XbRvl3v/VKtO9GQ/OBcOywhaB2Xf0ovqP1nmiYkSXIPDOcxkiR5mIH+1+qPIk4977ALAaBhGEil01g8cwbJRBK1WgWMc4TD4ddd/7ekrvCSfh44+6948Ow3caEy6TJTGGd4rXgKf3P+s/i52vvx7v5ftB0Q99D6Obi3q+Cf+Asi0jj40ORu7LmwC1PGJLht/G46zyzRzrrRACMcBjXAYIDIAAgDlSkk2VnGQiFrKobICG448x6s7R1Bb2+vRZW2F7O00o2DB7I4Ed8D85Y47uO5x8k5n8fw8DAmzp5Fw2ggEo1hOVeAGopgbHTdBgCdAObgNjWvAgcgy/Ia0zSVS6X/l8IA2mEFQUa2EpDoj8Dt+ARBabt4oPhTfws9Zh5xUX+p4TyfLMuedNQhFTUaDVSrVXRkOlCradC0BqIDCZTyBcTj8ded/nt39Pmpfhy7zljGP1mdhIuiSU2w8GTxNEDuB+cc7x54HyRKBGVeBKb9CFrZ7dEEAPZOPYQ953dh0rxgSYOBw2yYaLA6TG5C5zqIxCywTyaQKLEuIWYEVkkg1VSsJeO44dx7MNy3zjb+qAfwsxAEDsYJgudyiJf+C4iZuqVQRFq7BGLGk8lkcCSfR6NQQCyZQD6XQ6VSwY4dO4eSicRQsVR6DV7hW/6mdgCpVCqZz+elIONfqSy4lFPwR37RyPx1/mpbjCsZv3O7aNiO0bfLWNqRkxwHIS4ndcDA+fl5jI6OwdFCIIqC/IUFdHZ2Xn76z/2Cnf7oz/HAma/h38/chwuVSQgK5k1HQaxM4GTJdgLgeHffL4IKr8VV8hGjPZpZBAIirWP8E/UJaHoVuqmjYWrghIE7gp4yIIF6+/4OIOi0/ygg1UJYi3HcdOE9WOsaf8SGBoT2pIB4Mvjalc715qYXz6ZiQgBmDykRbk0WE07suYZmF0SSZeimidz8HBLj14BQgkKxjPXrN/R3d3cPFUulEKz9AdQmBb25MwBJkpiTFq/WwFeK5u0etxp8YSX6b7vn92sFisCeH/hzrvuzE7/hOnqD9XodANzUPxQKWRlARycaDQ2EUCgRFUajcdnovweUEwZixLT9gdP/igdOfwOT1Wl4Ap7zUCo4AXCcqZzBY2QXAI539fwiJFnyavR5FnwyT7tPpA7undqNbx3/F7xWfQ0mN8A486T+hAikHwnuxJ/TAnQBQUJAKyqGsR43X7wba3tH0NfnjfzOm3H0BZ1ywL/SzbF8cXYI9qIXt1tBBKCQwSPXbmEG1vsOx+OolEtQ4lEokoR8PofOzpSa6egYwLlzUQAVEQh8U4OA58+fJ07qupoyYKVIvxIbcDXg4kozA5ciJF0OcOm/Pait6PT8nceZpulOAnZ0dKJYLCEUCkGr16AbBkI2g3D1BB9fm0rIATg4vvXav2DXqW9gsnaxyfv3RX730jY4Bo5z1bN4dGkX9s0/6JYxjPlagQ6qzrzcAd0eiT63fBanC6fRMBswOXOJPk5fn5LmNJ/tEgBKbJUfbyswqscwVB3HYNca9PX1+4zf8XjEdSzc9Ygtyb+d7TRXmomuoanQzj1Zkhsg3EXNHP39A1jOZmGaJsKRKPKFPDo6unDttZuHAKTFp33TdwGWlpa0dtz71XD4LwUeXo7x+7sLq/k77QaPggg+K7Uyg6TL/DW9pRFQQTQag6bVoYZVVCoVa3+gLK9O8JOLIH8A6s8t43/wzLdwsT4VvI1BNH54ddoZ4ZjQJvBY7gHsX9iNhmEAHmovc40I4DBME0bDQEM3wE0LVX//6D3Y2XUDJEjNaA6n10/c6A8iiH1QeAQ/iB2Zi4kcXlWfx6nUYSiKBIlKwiwAfBRl5tbxnjfsCoC6vrD5vv2ZjaeQsh0FsXATZjuHzs4O1CoVGFod4XAY9YoGRVHR29vTCyDuJwS9qR2AruvnKpVKxY9eX8poV+oErJTGr5TmB00Z+o3Kz/0P6iK06yys9HqDSEaqqnoASUc1yDAMaJqOaCQCAiAcDq8OAGwh3Ii1rHXIVvUKDl14HBf1KcBPSRMUs+DDyYgzdw+LgXdBP4/v5h7A/sXdFl7hMuIs5N4wDDQMHaZt9K4RgiMqx/HxzV/CzelbIdtOANRq8RFh4Md1BLS5I1FckGIZJUM2uoCnqo9hf2kPtIYGcOKYpud/C+Qjgkah93aRS8TRXM7i/UybAiPOElg3A7CTnlgshnqlAkqAcDSMum59r5l0Jg0gZTuA5o7XN7MDYIxNVqvVF8QDuB3odynEf6U0O6gPfylgUTR6xxBXEukMuh6UjQTpDAQN/jjCouLjOzJp1GpVy/okitLyMqLRKORLpv+8efAGGL9z1EaVGMJyBCQo7nDfDBAVQ1Rz4s6yVI4pNom9uQewP7sbDd0As7cou5OPjHt2+zmrugmAzlgH/vSaL+CG5C3NTEBM8x1qLyGuvn9zDsBG9pmj3c+QDc3jUPFh7C/tRqOhAWCWsyIcvKW+8X1OxPnsPOB8S1pE/I8nxH4/pJktcUCWJRTyedRKRcihEMA5atUaxkZH05lMOiNwAeibPgP45Cc/ySqVylMradZfzlhwO6Nc6fbVMglFJxDE9rqc5wyiJwcNIVlotXW/UqmE/v4BF0hkhKKYy1ladZeK/BxC6u3n+nAPGejeG/8Km6ObLSfgq/U9x79T/8PbHWhmA8BFNoUHF76Oh+e+Ca1eD5DUClDSgSXk0Z3sxp9u+gKuj94Mmcsu1ddJ/amL+vuOgwBGIeMcS8o8DpUfxoHybugNA83mn/OeiOc9ECHaE09az4W/00Kjct+/VTPYHxIX0gJiLZqtFIsgkgJKKWr1GvoHBhLxRCIFQIGgA/KmnwUolUpHK5UKMpmMx7BWMshL6fxdbuT33yYi+f4dA5cCIy93jFncJ+A/R6NRFwys1WqIxRI2n8AykoamIWQrDQfHfd4i5eVfb+Xek1ua+8lIGp/f8dfYEt8MwqlgCAL/vd0KFxuEYzBQ0kpYLi1ionoauxe/gUeX7nfLAbc7zoLk0p2/QdGV7MKfbvwCrgvfCInLVikgCR0BChB7yw8RyxTWbDk6o7uMc2TpAp4sP4b9Fas08ZY4PAAmbV097fwRMfa3fK/uZ+QtJ1wAkVLoWh1Uth5rNAxEo7FoJByO2cYvNd3Fm/zEOT949OjRC4QQdHR0eLj2q5kGXC0CvxKw145EdDlEmqCfV9MJEJ2ePxOQZRnJZBIA0Gg0ICuOMq0JIsnQGw2ooVCw0/GTbwTj4pwHkl04LGfUk+7FZ7d/BVuSVibA22xtdIKd06ZjMFHSi8iWllCrV6wUm3Asshk8kr0Pjy0/gIZu2J0A7+y/U7czAS+gVEJXqhsf23gvtik3QOKS2+enUrMD4QqBMK+KkMhp4twi6WTZAp4uP44D1T0un4L7AA+riiFeyoP7ZtEUHwGxmIFo3iaio0QsjRzeCACTc5iGAUlRQGCxO0OqKiuSHEFzKIhcFRnAJz7xicVqtfo3R44cQTKZRDgcDtyKs5qoutpWYpCRXur5VxL1FI1/NeVI0GOCAEoArjZAQ2sAIDBNxzis9qCz66CV5ANPmiqy8fwOi3GvkKckUXRn+vCZrX+JzYnNbjFKhJRZLIs5Zyg3yliuLqFar7oHuwuUUSDL5vBo9j58N3c/Gg3Dx5RztmNYWYgN44FzBkoJupM9+OiGz2ML2QmJyS0Tf7DrbeZJ+wFu2re5W30tNH7JWMQz5cdxsLbHXswqhnziaW+KAChpwVWaBYL3KRwWIhcES5wPi1kOwDRBFAUgEphhWjqGshS2SwBy1WQAdi/8n5eWlp47duwYurq6XBXWSy3VXG1ZcClc4VKGv9rTpVpxQSWH+D7bdRRisRgM07DQdAcsI1YkkX0tQGGCX7ju28bjYQQJNFxh7bZEKXrSffjMlr/AlsRWS0LbhwVwAJpZQ66yhIpWdgkxjuZek5RjEXVyWMB3c7vweGFXc4DII6llhV+/cyDEcgJ/suFz2GTuAGG0yfijomF6FXqY+B5FyU3Osawv4enKXhyqPWxnAsT+x5ugpmvcxDX05ncndImcn9HEP5o1if1YDhBiPbdpv0aZyqDEEg61ShlJhW8Y6KpwAJ/4xCc0SZL+cGJi4sTS0hKGhoZcDb2VjPZS9f+lHneFSpgVf75URuKAeisRkBy5cCuVtamlBO6CUs/f5txbxHKvSq0n8qMp8SXs7XGvU4miJ9OH/3Ltl7E1LjgBADrTUdCWUajmrWgGQXLbKnMFQI24ETXPF/Dd5QfweOGB5hZnh2wDeFR/LZZd8/PrSfXgoxs+h436daDMVvxFk8/PwEVf1jyzZnkhdu3y1WU8W9mHJ+sPwzAazdSeiAinAO75AE/nTRE/Z5DAs4BEQAebnz1jIBJpfu6WQ5F8cOvV4QAA4FOf+tQxQsh7vv/978+fP38ew8PDSCaTroGspjuwGsdwOa27dmu72t339WQLYinR7jU68mCeoRluUUyD+Arwp/9i7x/e0V8urvZmgqoNa5YnvelefPLa/xObY1sAEJT1EvKVZeh6o4n6C4KboE1CTtOOmlh6gS/i8dx38HjhfovqzFv3AnKfrLjzeXQluvHR9Z/DaHUrCKPeTIeL0uH2+4F30KkpS2ZZaq6Wx3OV/ThUf9je8CxGfTG7IM2SQ7B2KmYKpFkOEN6kFZOA75RSCtmWLeeMO2G/BXO8ahyA7QQmOedfPXz4MI4ePYru7m53e46fMej/eSVDv5zyYCVHsNK68NeDTwh8iEs6C0VR3BqWOQYhiIZwn4FzwlvWcXmzBEFxFwIZh/s28IKDUIqeVC/+bOOfYxBDqNerVv1LmmQcV4jD7ss3oyltdsMEOfG8sYi9hQext7gLRsCGZ9L0XEK5Yi317Ip346Nj92KkdC1gEneoB6Lxi+vI7MlE4sE+m0BGvlrE9+oHcVDb7ZYDnAT0AIhFIiI+p0bEaC+CpEINRITncMo2TgDCLCxDIBhfvQ4AAD796U//DaX0vx0+fBivvvoqhoaG0Nvb6w7avF5DXinC+tuPl1v7BzmK1eAT4ijxSlkIt+f9hTrAjf6GbrQKbQiGzwPILdwtibnHaLzS3lxYl2Ut3OhOdOPea/4btkS2QRJQMkqJm/47UZ+iuZaryb1tGic4kNOy2Fd4CN8t3t9E5LlXiZjb00qcNMl2hFJ0Jbvx0XX3Yrh0LaBTgevgOFXRmQnv2eP47O+EAYViCd+vPYmD+h4Ypu6REnf0BD1tP/f7or7633J6za5Ak1jgsBQd9WcHWyAStUlJrZHgqnMAthP4lCzL7zp27Nj3nnjiCdTrdYyNjSGdTrc1mNUCeytlCEEO5vW0A4MeuxJ5yJn4W8mhWGq/lkWa3K7/KYVu6C1G38LaE2DBFh17/yy+qHCLZi/d1A0QStCX6ccXrv07XKNug8SpmwKLUZGKSzhtIMwBxLy7BjiWq4s4UNqDfZVdnrYcJwJnoUljbBoGpVY5MHovxmpbAYMINb/4+v2NfYfya/0RwpvRvlys4oXakzjU2ANDN5oRnou4jfN+Hd0BMXgIn4Nwf+IL7aqqWuxNxsAJh0wlaxaCcfMtB2CfPvOZz+wnhHzgwoULZ/fu3YvDhw+jt7cXIyMjCIfDHqO51MjuSn1+/2Mux+DFBR6rwRLa/d60U+Cg53fOqqq6o8UEHNy0AEDD0K0SgotdAMBL8iFefXvBmPzR0a/wyzkDY2Zzpp1S9Gb6ce+mv8UGeQsIkVxyDrG38rjDO0K70FXJEV+k3YBfLmdxsPQI9tUesLsDvGXqzmnGi9gApVY58EfDn8f6+jbAoE2egzCo43pEBoHx10QliIDUV4t1/KD+FA7pe6A7TsBnwUSQG29tG5Km4xNqAuKWDwSyjetwZh3DVJZhMAbDNBu2lydXvQOwncB5RVHu4Jw/8OKLL+LgwYMAgA0bNmBgYMAdlfXX0KuRFQsC7vxp+WpAvHaSXivxC/x/03Ei/npefC2hUMgyRDvCGYYORVWh64ZnZbk//Hsioai3D/hWXHNP9mBtQDZd5yQ+hlKCvnQ//uuGr2KcXwvKqUDJhWeKr+mQiNPst18XaXKVGEG2mMOh4qPYV/0O9IZhMwod5I4JXkC8RtxM4I+HP4dN+jbABgaB4O6H5waRrOOM8nKCWqGOF+pP4pD5kLWd2Wk5+geBCUBA3d95JxK9Q0piI4ASAllRwEzLyYUUGYauG4Zu1D20CFyFy0H9p/379xcPHDjw7TvvvPPCwsLC2NmzZ3s1TUM6ncbAwABUVbXolHZL6XLm9FcjNtrOobSL2CvhCP5VU6ImQEgQpwwqASqVCrR6A8lkBqVSEalMGvVKCZFIBKlkEpJEfQe8d1GHqMcH33UuXgfc9efgXiUf2CCk814iahTXR2/F0exhFKSsnQlQYQcfEQzfWw4Q0/6cmLOgk6CuaVikUzAlAyNkAySX4LQyn4MSgogSxZbITlwonMECnxOovcTGI6wZGwoKwol1zdYLlGD9TIR/usaQi81hXXUzYkqiOQvS5phoyiRwF/IgrZULKCU4e/o0Nm3dilgyhaW5BQytHcJSdr6ya9f9h/L5wilYoiB1ACbFWycAwOc+97l/URTllkql8vHnn39+eteuXXj66acBAGNjYxgfH0cqlfLIaQdF59Uq/LSr11fKCMSBoXZZSVBmEbQH0F9ihEIqiqUiLDsn4CZDKpMBM83WnR1AW+PnQb12gYjjKNrCCUM+bTuRTmzRhvvx2dG/wkjjGmt2gDZXcHlKDZudB9h9eTs9EJl0hAHLywU8VXoM+7TvwDB0j/HwFn2CJg2XSlYm8OHBz2Abrgc1pYA2KPdS+niT8MNhMRY5daEKgAKVQgUNXWvKkPu5Jj7WIPEJjBAPh8D6naIoyHR0gJrW64mEVSzMzleKxVIFthSY87Klt0y/eTpw4IB+8ODB/3j3u9/9bcZYanp6+voTJ05gYWEBAwMDGBkZQSaTAaUUjUbDTV/bzf77M4R20X4104d+B9KuhGjXcWiXATSfj+HIkaPYvGUrlpaySCbiiGeSqJbKSKVSPk0AcR03WqW34EP7HQfCrHpfbBe6mn6eNlvzkhIgokaxI3QLjmQPo6TkrEzAXrtNQADmbOKldsS3TYXBus1Z0Q0Cyii0io5FZQqGpGOEbLQ6QPCpcXAfwmZ/plE1imtC12OqfBZFvQhDatg1PrUcFCgkTkAJ9cR+Sql9P+sUT0Uwmt+CIWMcqWQKqqzYbUDuQRDc9J+jpTxpN6aZnZ/HjrffBr2qYTm7jE2b1mPfvsdnHn54zxMApuwMQANgvuUAgh1B8eDBg7vf9a53HWOMDc7Pz/eeOHFCXlhYQDQaxcDAAHp6etyMwGWcCZFrNWu/V1sCBPECgmTERYlw/0m1p/qCNgxbz0dx/vx5bNp0LZZzy1BUBaFoBIVsFplMxm0TelN8NME8f1kB38Ze04TJmKck4IJ6b9Dq66aqllUOrJXG8MrS99GI1uyeu2X8hBAXgCPM/lyYkHBz4ZJTUE7R0BugIYZN+k6rzBPBOHsk12UfijP3lCCqRLElvBMTtZMoNYowiG616jiBxK22XfOf5QzsQgEgBPF4BKOVLdhcuAV9fX2IxWJwRg5F5r84MATicb1eJqZHKNbE4vw8Nm67DqVcAY2GjvGxUTz2+GPnnn3m2UMA5gGUADQAsLccwAqngwcPHr/jjjv+hVL6741G4/Ti4mLmxRdfHDx+/DiZn59HrVZDd3c3hoeH0dXV5cpni+u4/Qa/0n7B1bb/gn6+VHbgkkN89xNf5+zsLHp6+qE3TJimgc6+XhSWltDR0WFlEIT4WgGt+vuOgTNuK9jCGkxxWmcQeuWtW3vQZAm67UKLhFNjFfz12c8im552h2sIiNDTa6bH1AYBrX+06QBAQYgESoBUVwI3nr8bnbEuRKIRSE6v3WXr81Z8wAbxCCUIqxFsUa/HufoplPQCDGo2jZ74nIAwVJSIxTBW3YbNpZsxtGYI6ZS1b7GFAcyJuyPALe9s9QAiCoyIGoQA6vU6KqUyNt94E5ZmZiHJCgYGevDgA7tefenll58HsGQ7AB0Ak98y85VPX/ziFxmAowCOzszM/MP+/fvfMT09/YdPPvnkL1NK1VQqhWuuuQabN2/GunXrMDg4CMDS2KtUKiiXy9A0zYPEO6QjkZ/vj+b+SO9P78X7iUYclAU4y0T868Cc1+PIhHPOUChkEYslsJzNIhQKQVUU1Ot1mKYBicgCEChE/oC99c4Ba9rZEfMttfTs+POt6nLmERxufcUo4XOvfgizqXMghLsSWm7wY/z/b+9Lo+M6yzSf77u1qlaVFksqLY5WL7LkJcFLSAdIAiQOzQxL0z0EpvuwJH3OTHPo6TMJPXMGZn5NMzCd+dFn5nQfupsAh8A0EAbChHQgxM5iO7ItL3Ek2ZJVKi2lKqn2qlvbvd/8uEt991ZJdogDCXPfc+pYKu2y3u153/d59GrA2MtTw44AYQSUAYF2L0YzB9Dh6ILT5eSWctULPJ3Bl1vPIdr/hxIeBCog5OvAn5LH8L9i/xXz4ixKQln/HejnvdrVHgP8LV4MFfZhvKA4fyAQgM1uNxJ6aMtRlCnVDIV+nKUOaPX7AKaSgSjfm/KzZzIZdIXDcDicKBaKCPf2YGNjA5evXIkByKtfQVcktQLAG7Cenp4agOcBPP/CCy8cmJ+f/+jCwsL9L7300sHTp0/D6/VicHAQExMTGBgYQFtbG0KhkD6LF0URoiiiUqmgWq3qztcsYzdTBGpWvvMz/mbvo31+jRpdG2ua9wucTifC4TBEsQSfLwhJriGfzUOw2VS+QBmCjZ/98bJcTJ2ksYbvTXN8Pavr13PGUSHjn+Mwgnwth788/whWWxdAKNMuXutfW24Ynml+rDiOgWiQIBjyYSR7AJPFd6Ontwder1e5DtW4eRqRQG5t2FgNCFRAm7cDj3R9CX8b+yvMl2ZRohVlX1lDIanymb0uH4aKE9hXVDO/qrTMNPpvlfMflIDJ6pBBwyKo8jPXDwCVN1Llx1cCovpNJuIJTExOopQvoFqrwe/3I51O1jaTG3EV+a9xAQBWAPg17e677z4P4Hwikfgv09PTH4hGo3eXy+WdkUhk8MqVK6OyLHt27NiBsbExdHZ2wufz6ZLcra2tsNsVuiZJknQyzmq1qjuo9rzmvOZZvlkM1DwKNOMOGi+gNhbUuAG1zy+KIrxeDyKRJXR390GWgWqhjFBnJ/Jp5SJPc2L+uo/BKNqp5faaJKkEGirIp4la8GrAzLhRpz1H1KCQr+bxl+cewVrrVUAgJuEMUv98sp5kFeBPAwS1vpsp6Hpr0I+R3AFMiu9GuDeslN9UMIzYTJc1HFsHD87VP0JQ9wQ+j0fxd+tfxXxpDlXUDCEk4AhgTJzEeOmI7vzK7QXTkz4FVTQKlBigxA9uPYFp3ABMuVdgjEEmso5LQGag1IZKuYyenTtREUUwBgQDAUxNnY4nEsm4CvyV+SbOCgBv0jo6OioAfqI+kMvlnIuLi13RaPRoNBo9fPLkyfeJojgCwO1yueByueBwOBAKhRAOh9HW1oZgMIhgMIi2tjadoOPNyXDXy34tqFQqFRQKBeRyOeRyOaRSKSQSCaRSKaTTabXMl5DL5XD4yO+BUopsJo1AWx9i+WWUS2U4nU5N26Lu/LIR7QeDMjqUuTs6VQxPNt8C8Mc1Kk+AxvCbr+bx2NTDiLVdBVHYunR/IDrmwLUCBmyCcHsBCsDZ6g1gJHcQE6VjdecXdP4v0/5OE05ydaqgv6wf9CjBpd3Xgc+TR/F38a/huqgEAUYZQkIQY+IB7Ksozt/a2gq7zV4/jSYERJZVLkJqGJ8aDwONB2oyqcuNKW2GMsmw22zwt7UhthCB0+lAS0sLzk5NrabTqTiX/fUZshUAbpGJokjcbjfz+XxlABH18WQikXBdunRpoFKp7I9GoxMLCwt3VCqV3TMzM6Hp6ekWQgjcbjccDgfsdjtcLhc8Hg+CwaD+vNvthtvt1oE87WNsNhskSUKxWNRL6VKphEqlojt8oVBAsViEKIooFAq6EKi26iwIQoVSmqGUnqeUTqfT6cFcJvUxj8eNTDqFAcegTizp8XoUWS5+/GfCArT2AubzWTRq2SkfL+tjSO1t+WoOj009grXgHIhNAd20aztmHrXrOADRRu+Ko+ozeYI2bwgj+f2YLB1Db7hPl+xWMrARVTdMA/gyXAPntAhI+Dm/UlW1+zrwOfwFvpH4OuZLcwjSIHaVD2KidhThvrBe+Slft473y5Q2tB5U/c50CjtQyETSD5YoIWp7Vf9+M+kMdnR1we1uQTqZRrA1ALGUx/zC/DKAtLoDUOFCpYUB3Cpzu91siwqhBGBWfXwvmUwKkiR5L1y4sKNcLu+XJGno8uXLXblcblCW5SFRFDsymYxzYWHBxhijjDFBkiRKKaWak1cqFR1MJIToIz4tO1SrVUnJ1kQihNQopTKltEYpXaaURgkhKw6H4zohZJYQMg9g4Wtf+1oWAHbuvO29f/SH8fu7usOeldVVlHIl+Px+lMQSqtUanOrM3My6q4GRsqwRZzDjyaxh3FcnHwGMc/98LYfHzvwpVkNXQezGwUPdSYjeKkBd+ZUZA+W2jrWZe5u7Ten5K8fQ29eHVnV027D8Qxr3AYlefhMTSl+/UtTBWqgcg74OfJb8Bc4kT8CWdmMH6UV3XzdaW4M65yIxcgzVQUdw4KX6O6SEQlZPqYmml6YFAShvUzoDhtW1VUxM7kdVLEMslTA8OoKV5VV5enp6HkBGRf4tDOC3aaFQSFL/MzIA5rTnk8kkAeCmlDrS6bQ7lUoFCSFOAG4AdlmWvQAIpZSl02lbMpl0E0KIIAhyOBzOU0qZmolqJ06cKLz66qvM6/UWBUHIE0JEAEVCiPj444+Xt/v+0unUtYWF+Ut9/QNHmMyQTSXR2dWOlUgErZVWOBx2I+EHA+f8siLIKRvHfbKmhw3zdSC/AMRQqObx6JlHsBpUyn5CqMH5GVGRcRmG01/9dl67wFNfDzlDGM0fwGT1GHp7exEMBEBtgn60ZC6xzd6vVB0Gsi71H2ZoEyiIEiQYg2BTgsA9jgdRCoqgVFC1FWyKE6vLRToACwJGeSJVI527LMvG701jONILEaIDkoVsDgPDw8hupgBC0RoI4MwrL8XW12MrKgBYUqsAZrUAb7/AwAAU1UcawNpv4/tIp9PL56fPnbn7PfcccTod2Ign0N3fi0qlArFYhNvtVjIoN9qrA5SNvAHmkR+f7fmbgXw1h0dPP4KV4Jya+et38vwdge6Ksg6yc22BVlZThGxtGC0cwkT1CMJ9YQSCSuZnMqsTaDCTs/PhQAUaQYyLgfWxoHEiQLjKQBAUp29paTECtIyYfgpzH0NhlAwz7Xro80VmaD+0sXOwtRUt/iAic9fh93nhdrnw8qmXF/P5wqqa/cswshfCugWwrOHP8eKFCy+sr68hEAgik81BLJbhDwZRLBRVUU4YFXkZgyxJdTpuw9iSNWz5sfodHuf8D2M5OAfYGUeKAZV5CPqNPVMhLEaMbbrOns0IQkI7xgoHMVE5gr7ePgQDQVW3j9Q195qV+/wvwcS3Z7jCMzv/lhufptd1um+T1qB22MR/PKV1bUJtaYzULwPNXzcajWLvvn2Qy1Vk0mn09PRgbX0Zp06dmgGQVAOAof+3AoBlTW0xcv3s3NzMObfbBVmWkYytoSscRjafQ7lUUhwd9dIfWgUANKjzGI6BNOxArkt15as5PHrqEUT9VwFBVk5jBTX7c0zCsrprIGsjSLl+xasBkpQRtJMdivPXjqKvrw8BFfDThTR0IM847jfeAtS5Agwr2zDe3/MnvAYH1x12Cx1HnqKd1JfBaEMQMbE489uj3NelAkUiHsfwnj1IxeOQGUFXVyfOnz+/Njs7Owdl869o7v+tAGBZU0ul0kunT5/6FSCjxdOCtVgM2hZQLpdDVb3mkyRZv/DTL/t47l/z9SGnqKNl/n9/6hFEA3OgdtX5ObELM+suQyMbkSrACzCKdrYDu4oHMVk7ir6+XqXsF3jQslnKJ/rdfn3Atz0R7FbHW9TgsGpmB2nI7sYA0jxI6F+XGkVJm71fJpNBuKcHDncL1lbWEAoF4XQ48Oyzz13NZDKLavYX1f7fcEZqBQDLmrYBZ6emnl1ailb8vgDy+SKymyn09fdDFEVdSZgxJfvL4Dj/DfP9RkIQzZHrmX8OxCbrZJ8G0hReg4fVG3GmzvsYI4AEUEbRIXVjV+EQJqQj6O3tRSAQhI2aIC6ZG11yjEa8Mq/h7A5m+i3S9DmDY8PIz6dVBZSXGzdUA9tzR5gDUgO3hEAxf20edxw9hlImh2whj/7+XiwsXGUnTvzqEpTdfw0ANGR/KwBYtqVdnb/68tSZ0790t7gh2OyIXI/A396Boigim81Ckmoqii/XOQBkVs/Wpsyvbw7Kyqjv0dMPY8k3C6jOrzkDpUTHEgwTAE2NR9YoxbWqnqBTCmN38RAmmOL8QS7zG+W0+bKBv6wz7v0bsn+zM26ydVbWVY1VGmNjdqdNpOPpDaXnmwUJ7VGtVGGjFF39fViOLMHtcqOzswPPPPPMzMzrr78G5fS3qFYBMkzUDlYAsKypSTUpd+bVV/5vNptBayCAjY0NpDeS6OzsRLGQR6lUrstlyTzLFGu49WfcBEBz/ohvFszGVDluonP8KcN86JuDjMMXeBESjeqrq9KHXYVDmMQRhMNhBAJBUGraomRNdBWaqHPeiAi2gYLLFCC0jE111iJT5ibNsYKmX+smWKYopZibm8Pthw+jVq5hYyOJcG83Crksnv7Zzy7JDFEV+Ms3K/+tAGDZtvbq1NTPLpw/e8Hn94FSAYvzC+js7UWhKKJYKOgTAe0YyCyZ3ez5//Dqv0HEMwsIDFSoC3/qdNe8ihC3NEQM8LWyD9BV6sNu8RAmieL8wWAAgqDp/tXpxbjEbR4mGgpixtgWMwGem58H/ZpkaGrUNDc4rMrvR5vIs91IYLbZy5IkQSwWMTY+jpWFRVBKsLO3DydePLn+yiuvnAWQRZ38o6H8twKAZdtaOp2e/8Uvnv1hpVyCz+dDbC2OXKaAHV1dyOZyKIpiA8U3T/IhM2P2L1TzkOQaIDC13IeC+HPMOwb+QAOJKHQOfsgEPeIA9oi3Y4IcRjjco5KzCPVFOU4R2DCB4BB/YvL1OvmmOROr3X2zLA2jhLdO3olmWRsNZT/lgcItMn8zkFDL/kfvvBNMBtbicfT29kJiEr7/ve+fLxaLCyrwlzWh/xYGYNnNg4EvvvTSDy9Mn5sNBoOQCcG112fRv3MnSqUS8vm8yoYkGxZ8lHJdbpgCuIUW3LnjfWhN71Ccn3AoNyXKOBFcv4/6Va2u4Vcj6M3vxO7i7ZigivP7/ep6L3ehbBYu5Zdw6lAAM/AXqDvEjYMCmEeBMAl3qs81c9Qm4z+jRiD0haet2KOavU3jm9g9Po7Fq9dAwDA4uBMvvXRy85mfP3MawKba+2s8gE1X1S1GIMu2tVKplGCMtR49dud7bYIdG/E42js60NnZjng8DpvNBofDYZj9w0QLzmfhMe9eiKUSVpLLqHiLCjouUI5MlCcc4bgBQEAkit78EN4dexCjnr1q2a/M+XXuDQ3UI82qeVVoQ5fXRgPCbszuTfr1Jn18/XM3Kd+3KeXfcDTm+BvOnzuHez7wATgcLZibmVPGnh4Pvvyfv/Krs2fP/hzK8k8cW8z/rQrAspv+uzvx0oknz52beq01GIRgF3D5wmUEQiEQQpDJZFCulLntQGPZzzjKb8gMgmDDR/o/ifcFPgRfvIOTxWKqfJVpiUi77JMIwpkhvDt2HH1tA+jtDSMQCKjU3uoasgxjO4J6GWHQJzZf+XG4oAEo3MpPuRJfc0htxLcdgEcJfUM08lv1/olEAl6fDwP9/ZifnYXdYcfQ4G145p+fiT399NMvq86f48C/LUUorArAshtapVxJSVLNe/jI4fs8Hg/W4wk4bHYMj41gZXkZlFC4XE69rGZNpMF0AE9mEAQBI549KIgFrCZXUfUW69WD/n51ngBIFH2pEdyVeAC9oQFlzh8MwKYy+ZiZehrOd4h6SUfAiXU0z9yKo9Emz23hpAT6Nt+NUPwGtJ87+udv/beThJckCVNTU/jIxz+OfCaPxcgShoeGIQjAY4996ZnXZ17/Jeq3JEUO/bdaAMt+fYtEFq+Fw+EDk5MHB0ulEtZjcQwOD4IShlQyBUEQdH67xtIf6my/HiAEQcCoZy8KpSJiyVWUPQVOO4CTH5MI+pIjuDN+HP3tO9VRX0DZ7dc9mgsCXGYn6uGM2fnrH0aa9N/mzNs4ztPbA0qaAHhbBwEDdgBsyeDczPG1AHHlyhXsP3gQ/QMDuHB+Gj6fH3t2j+CJJ564+vj/ePz7UGi/k+qjYlUAlt2aPoCxYiKxnjt06Pbf7+rqsW9uppBNpnDg0AGsLi+jUq3WmYxMx0CMOw820KcLFGMte1EQC4il11D2FHRxDyUSUN35+9r7defX7/kNJ31cHQ8YHd4A2vH9fTOthq1L8psb023v8Dfb/zejhU8kEigWi7jnfe/DlUtXUCiKmJzYh8jiIvvCF/7sBxubm6fU0j/G9f7MCgCW3RLb2Ni4RinpOHz4zsN2hw3r8ThcTgdGd40hurSki4wSjqpaNhGHGKTLGAEVCEY8e1EUi4il11ByK+0AkSn6ksM4tv4ABjoG0NPTg0BQy/xoVOU1tAAaWdYWSzYgJjUdVZFnCwffrj240ay+GcDItx43W/qXy2VMT0/jIx/7GNKpLK4vLWPnQB/aQq34T1/+jyef+fnP/w+AhAr8pdTsL2/n/FYAsOwNFwJzc3NzwyPDd43v3dddKomILK2ib6Af7e1tiK0pFAYOp0MF3tC0JTBe3ykEp8MteyCKItYza6iRCsKZIdy5/gD6OwYQ7ulBIOCHoBF4Ep4xU8flDBm8LuzDrfSa+n/jGO4mNvC09+U+TwPij5tvAW6U+bXXJUnCuXPncO/734/Wtg5cujCNgD+APXtG8d3vfnfpy1/5yndkWZ5THX8ddeIPKwBYdmtNkqT08kokc/iOdx0P9/TZk6kU4msxjE/sRTGfRyaTgc1m0+mvzOfBSlXATQtUP6aUYti9G7VSDb5yCEcy96En1Ivu7i4E/AFQjcNvKwfiQL1G54fhOMeQ+bfL+hrir/f8N17V3SoImMHJN9ICzMzMYHh4GLt27cKl8xdRk4H9k+OIRCLS5z7/ue8lEolXVMR/TW0Bamiy9msFAMtuTSuQ2LhSKZWC7zp85JjX60U8voH0ZhrvOnwI6+vrKIoiKKU67319rCdzNGHK55I5mnFKKQZbxjAq7EOrrxVtbW3weL3Gsn+LhEb0gx5mdDYNmOMmBETl3ebvfcz3/VovQUkdK6CEGrI/paQpZtCs3zc7/3Yqz7wtLCxAEATcdddduDZzDalMBiOjw3DYKP78333xuV/96oUfq4DfOpTlHx74Y1YAsOwtsddnXp8OBPy7jx27c5SBYXU1BiLLmDwwiWg0ikqlAoEKdRZhs/YfoNOF14VFlRVXjc7a4XDo5Tnj/545LUKdjktvK/hMrzq/ifGXbNE2GCcA3MIP0ED+0Yzxp/5ckwOgJo5/o9J/eXkZmUwG999/P9ZW1xFdiaG3twd9vd34+n//+uW//uvHvwVgWXX8GOo3/zfl/FYAsOzNWPHKlStXx0aG79q7d7y9Uqng+vUluJ1O7JsYRyQSQbVagc1uA6VCg7qRzEyaAjw4SLmRnsw4v1d4+hiMe/z1w2FieANRR30NF3+k+Y09wN8lNO70b0f/1TT7k8aiv+EqcQvnj8fjWF5exvEHH0Qul8e1hUW0tbVidHQIT/3oqbUv/vkXv1WpVC5B2fVfhrLyW7uZvt8KAJbdEiuXy7ELFy6uTuybeO/o2JinWCwgsrQMv9+PXbtGsaRVAjYbd6ijrQvLDevCOnMwYJQVZyZFXIO3EE6v0MjsYyi59bFfk/16NGZrczvQSAxyo1Hf9h2/OSDyz29sbGB+fh6//+EPo1KRcXX2Gnx+H8b37sLUmVdzn/r0p7+5mdx8RXX6VSiLP03v/a0AYNlbaSyby84tLMzn7rzz6H19fX1CJptHZGkJHe3tGBkdRnRpCeVSCYKNKu2ADO5WQDZyBuqVAOHuctjWJ7sMJmCvXtvrWn8aDlD/KJ1jh+hCgsagobcDhH/ZPFKE6XVzFWDs97dTbuZ/tpWVFSwuLuJDH/4wwAjmZmbhcruxb98erK4syw996lPfm5ube1YF/WJQGH/KuEnU3woAlt1yi8Vi56LRKI4du+u93d1dyKYzuL4YQag1hD17dmF5eRklsQRBUIMAOApxZpQYlzm2HgMrkCkAEFUmiJnls4hyCsyvBOrEHQbtDWKMHDcgA9nK2W92uafZYg//PGMM169fx8bGBo4/+CAYCGZen4PD6cD43t1IpTbw6X/9xz968cUXf6Jm/PUmff8bNisAWHZLbHFx8dWNjZj3yJGjR7q6upBJZ7C4uASv14PJyX1YXVlBPl/QhUoBuX45yG8Nql0+k6Evyhj7fO5qkM/s2uxfk+Ouw/7GbG6SACKmz4Et9vZvNMc3U4U3e76Z0wPKfv/MzAzK5TLuv/9+VCo1XJ2dh8PlxN7duyGKeXzmM599+qdPP/1DKMs+CbX0N+/6MysAWPbbMAKgNjc3dyqRiHuPHD76rq7ubuTyBSzML8Jld+DQHYcUWrF0GrIswWazQ5P44st/HczjpMRu+MWJuQfgagJeZVPFIJp1502vh99IL8TtKGzV/TerAorFIs6fP49AIIB7770XmXQWCwvX4W5pwfjeXSjms3j4kUee/d//9E9Poj7qW+VAP+nXdX4rAFh2q4NAeXZ29uWlyKJw9OjRw7fdtpMWxSKuzV9HSRRx++E7IFCKWCyGarWq4AKEcjwAjOP9Y1s6EOGWfYzfAGua2fnvkBflNB0R1icAJsLPepfAA4mNLcON+nzz29fX13Hx4kUcOnQIBw8eRDwWR3RlFcFgELvGhpGIr8t/8sd/8tMf/PCH31edPwkF8c/9uqCfFQAse6uDQGVhYeH03Nxsbc+e3QdHRnY5JVnC9aUoEmvrOHD7AXTt2IFIZAmiKEKwCRC0c1pm+kvWAoHezrPGHE2aM/c0vJv5Q003/TyOQDgtsHpmry8aqaLkN9UONAsKsixjdnYW0WgUDxw/jt5wGGvLq9jM5NDZ2YGBgV7MzcyVHnrooR/88y+eewr1/f4lGDf95Dfj/FYAsOytMAagurS0dObMmdMbQ0ODEwcPHgw47A6srq1j/up1dHR04MCBSWxubiKZ3ERVqimsPpQ0KZW5NoCZWgLu9Jehzt3XgBySbYp71cH5WT8fQJrJgGn/mkv6mwEANzc3ce7sWfj9fjzwwANoaWnBSnQVpZqE/nAPQqEgTp54YfOTDz303XPnzz2tOn4Syplvjiv737TzWwHAsrfSqslkcvqFF15YDIWCI4cO3d7d1taGZDqFq3PzqFaquP1dt6OtrR1LajWg8QQY+mowMI08w8z9oQKBfLAgMMl5czJgdVpvGNYBt70x2KLXN/v7jVZ7S6USrly5gmg0inve/37sGx9HrVpDIp6Aw+lAb7gbdocd//CNb1z77MMPf2dpael5KKO+dQArb4XzWwHAsrfcSiVx7vnnn7+YzWaDhw4d2D00eBsqlRquRyJYjq6gp6sH+/dPQBRFJOJxlEolUKoKaoATAW2WYU0SvxrfX/11vixhKnbQuFR0c86vrhnfgMTDHARqtRqWl5dx8eJFDA4O4p777kPA50Mhn0dBFNHaGoDf70OlVMJjj33p1GNf+tITxWJhGvUlnzU1ENyyst8KAJb9JtsBIsvy8vT0+VevXLlc3jlw29jExESLz+tDYnMTs1evQSyImDx4AIODg0gkEkilUiiVS6BEqJN/NHTqxi5AWxDWxolEawyaOjd5Y3A/Jz/OwG5Y5muOH41GcfHiRTidTnzwgQdw286dEChFoVgEpQICfh8EQcC5s1PZz3zmMz/51ne+/QMAV1WHX4Ey7tNGfW8K7bcCgGW/zSBAAWSWlqJnnv/lL69VqpXOicn9AyMjw2CyjEhkGVdnr0EQbJg8uB/9/f3YSCSQTqchimKdG59f3gG3CMTMlGAEsh4mWCP63wwUNOR583PsprI9YwzVahWRSASXL1+Gy+XCvWq573Q4UKtJqEky3C4n7HYbWK2G//bVr178t1/4sycvXLz0rAr2pVXnj6Pxrp/d6v8cYv19WvYbMo3ETwAwfvfd7/nU5z73+T+4692/112pyrh+fR6JRBJerxujYyMYuG0AJbGI1y5exOraGgghcDgc8Hg8Kg24mda7/udsJvpQ3pWq5KCm+3yO1FOrNvR/Cd2Ws58XMs1ms1hdXcVGIoHhkRHsP3AAwUCg/tPLTN0+VOzkyRObX/2rr5746dNPPwcF3S9CWetdVyuAqinrs7fiP8UKAJb9ps2mVgShgD/wnk984hOf/qN/9cn37Nq1y53N5rGwEMFmKg2/x4Ph4QEMDA+BMAlXZ2cxPz+PkihCsNngdDrR4narh0b1NoFS/p6fcLJjTRiBaJ0bkG5DEEJN/P7ax+dyOSSTScRiMTidToyPj2NkbAwtLteWP3xkcVH6n3/zN1N//w/ffC6xmbikZvycmvE3YZTxltGAWFgBwLLfnSBgAzA4MDBw30c/8tGPfPwP/vDI0NCQLZcrKIFgMw6b3YG+cA/6BgfQ2hpAIZfD/NwcIktRlEsiCKVwuVxwOV1wOB2w2QRdbgv8Ca++FkwVMQxTELghnTcIimIR+Xwe6VQKqXQabrcbY2NjGNu9G36/f1uRjdWVFemJf/zHy9/81rdenpmdfRX1PX5NwCPL9fpvWclvBQDL3k7mUFsCD4DR3bt33fcvPvwvP3j8wQ/dPjw8aqtWa1hZWcHaWgzVSgX+gB+9vb3o6N4Bl9uJWknEUiSCWCyGeDyOWq0GwSbAaXfA6XTCZnfArtKTCTYBAlV2DSg0mS6jC2jlfKVSQa1WQ7VSQaFQQC6fhyiKsFGKnt5e9Pf3o3fnAFpaPHAIAmQA5WIJgAyny6WKlSi2srzMvv/kk6898e1vvzJ94cI0lE2+vOrwG2oF0KzXZ7+J/wArAFj2dqgGtIcXwOjoyOh7jx8/fu8HPviBifF9E36nvQWbySTW1laRTKbBGIPf58OO7k4EQ0H4gwFIsoRqqYR8JoPo0hLyhQKKRSVjSzVJXweg6jGSzFSYkBDIsoxKpaKDeXabDR6PB16fDwG/H70DA/AFAnB6PHDY7aiWK6iIZZSLImRWg93pQigYgMNh13+oC9PTxad+9KO5Hz311NSFixcvqH1+Xu31NwFk0Hy8x36Tv3wrAFj2djEKwAXArlYEt3V2dh48fPjwsfs/+MAdR48dGxoYGABjBKlUCrFYHOl0EtWqBJvdBq/Xi9ZAEC1+L2wuJ9xuJ5wOJ8RiAVKtqg4DmGGLXx/dUaoyEQmgAoXN4YSrpQWSJKFaqUKuSiiLBRTyRZTEIhgDXC43OjpC6Oho03+AjXgcz/3iF9Ef//jHr7344osXl1dWrqmlfkF19rT6MB/yvOW9vhUALHsnmDYlcKrtgQNAt9Pp3DM8PLz/8OEj++++++7dk5P7e3t6wnA63SjkC8jm80gmN5HL5lCtVnX6bofdCXeLEy6XCzanE3bBrhOTEKZIk4NjKmaSDEmSUKuUUS5XUJOUyoFSGxwOO/w+L9rb2+D1efRvOL4Ww6tTZ9Z+/uxz1188eXLm9dmZuVKptMQBekW13M+or5tJO9lvw/GtAGDZ2z0Q2NQAYFf/9QPo8Xq9IwMD/bsPHji0Z3x8385DBw+Gw/19/s6OHXA6nahWqxDFEsrlKkplEflcHqVSGdVqFYzJkGXZBPZRUEog2Gyw2wTY7U64Wxzw+wLweDzwuF2wO231LJ9IYHl5ufDySy+vXbh4YeXU6dMLi4vX57PZ3DLqopwVrs8vqEGg2qTHZ2+HX7Rllr2dAwHUisCpBgWnGgzaAfR0d3UPtLW39U9OTO7s7u7uHhoabh/btast1NrqbW0LoTUYgsvVAputCV3AVsYYUqkMNjc2kM6k89euzmUuXXltM7YWi5+dmopubG6uraysaHRcWdXZy+ojrz4KqKvzvO0c3woAlr0TA4GgVgRuNRjYAbSojxCAVrfL3d7e0b6jxd0SbGsPtQ0NDbeFWkM+r6fF43C5nTaB2gWbTSCUUCoDNcZkJtekmixJFbFcKZZKhVRys7BwfTG1vr6eEkUxu7GxkS4UChtcVhehIPcV9aGV+gU109fQHNFnb9dfrGWWvdOCgRYA+FZBqxBc3L9eNWA41OfsUABHyn0uWe3Lq+qjwvXrNdXZNacuq+9TUt+njMYrPbPDs7f7L9Myy97JwUDDDGxclWDnXtcWjwTu/bUAwA8GJPVlzZFlLsvzL5uPc5qV9uyd9Au0zLLflWAAzqkp5/gakmfO/rzxji9zTi5tk9XfcU5vBQDL/n8LCDfzutnYDV5/Rzq8FQAsswLDGzf2u/rL+H8jgIZsD5vwvwAAAABJRU5ErkJggg==;" vertex="1" parent="42">
                    <mxGeometry x="28" y="10.689999999999998" width="37" height="37" as="geometry"/>
                </mxCell>
                <mxCell id="43" value="Host PC&lt;br&gt;" style="text;html=1;align=center;verticalAlign=middle;resizable=0;points=[];autosize=1;strokeColor=none;fillColor=none;" vertex="1" parent="1">
                    <mxGeometry x="117" y="442" width="55" height="18" as="geometry"/>
                </mxCell>
                <mxCell id="45" value="Management RaspberryPi For Remote Location" style="text;html=1;align=center;verticalAlign=middle;resizable=0;points=[];autosize=1;strokeColor=none;fillColor=none;" vertex="1" parent="1">
                    <mxGeometry x="103" y="23" width="265" height="18" as="geometry"/>
                </mxCell>
                <mxCell id="46" value="SSH" style="text;html=1;align=center;verticalAlign=middle;resizable=0;points=[];autosize=1;strokeColor=none;fillColor=none;" vertex="1" parent="1">
                    <mxGeometry x="297.68" y="171" width="35" height="18" as="geometry"/>
                </mxCell>
            </root>
        </mxGraphModel>
    </diagram>
</mxfile>